<svg width="409" height="158" viewBox="0 0 409 158" fill="none" xmlns="http://www.w3.org/2000/svg">
<path d="M398.879 119.56C399.439 117.88 399.639 116.84 397.879 116.84C396.999 116.84 396.519 116.88 395.959 116.88C395.639 116.88 395.439 116.84 395.439 116.6C395.439 116.32 395.679 116.24 396.119 116.24C397.119 116.24 400.039 116.08 401.239 115.4C401.839 115.12 402.319 114.8 402.759 114.8C403.159 114.8 403.159 114.96 402.959 115.48C401.479 119.24 399.839 123.96 398.799 126.8L395.799 134.84C395.559 135.44 395.679 135.6 395.879 135.6C395.999 135.6 396.199 135.48 396.399 135.04C399.119 130.12 402.239 126.44 405.399 126.44C406.879 126.44 407.679 127.4 407.679 128.92C407.679 131.8 405.039 137.12 402.559 143.16C401.839 144.96 401.799 146 402.679 146.04C403.599 146.08 405.039 144.52 407.919 138.92C408.159 138.48 408.319 138.32 408.559 138.32C408.799 138.32 408.879 138.48 408.639 138.96C406.319 143.52 403.679 148.52 401.239 148.4C399.639 148.32 399.359 147.44 399.399 146.44C399.439 145.64 399.719 144.64 400.279 143.2C402.519 137.56 405.239 131.84 405.239 129.76C405.239 128.76 404.919 128.28 404.279 128.28C401.119 128.28 396.719 133.52 393.839 141.88C392.799 144.96 393.319 146.4 393.079 147.24C392.879 148.04 391.999 148.52 391.039 148.52C389.919 148.52 389.399 147.68 390.319 144.96L398.879 119.56Z" fill="black"/>
<path d="M382.082 143.44C381.882 144 381.642 144.76 381.642 145.24C381.642 145.92 381.962 146.4 382.842 146.4C384.602 146.4 386.802 143.6 389.082 138.64C389.202 138.4 389.362 138.32 389.482 138.32C389.682 138.32 389.842 138.56 389.682 138.88C387.562 143.84 384.322 148.24 381.202 148.24C379.762 148.24 379.162 147.24 379.162 145.92C379.162 145.2 379.362 144.36 379.682 143.52L384.842 128.48C385.042 127.96 384.922 127.6 384.242 127.6H381.722C381.482 127.6 381.362 127.44 381.362 127.32C381.362 127.16 381.562 126.96 381.882 126.96C385.602 126.96 387.082 125.52 388.682 121.96C388.762 121.76 388.962 121.68 389.122 121.68C389.322 121.68 389.442 121.8 389.402 121.96L388.082 125.68C387.842 126.44 387.882 127 388.722 127C389.962 127 391.162 126.68 392.042 126.68C392.362 126.68 392.522 126.92 392.522 127.12C392.522 127.36 392.282 127.64 391.842 127.64H388.442C387.922 127.64 387.402 127.84 387.162 128.56L382.082 143.44Z" fill="black"/>
<path d="M369.753 131.8C370.393 129.96 370.393 128.92 369.513 128.92C368.593 128.92 366.913 130.52 364.273 136.24C364.033 136.72 363.873 136.88 363.633 136.88C363.393 136.88 363.353 136.76 363.553 136.28C365.673 131.6 368.433 126.52 370.873 126.52C372.473 126.52 372.793 127.36 372.753 128.4C372.753 129.2 372.353 130.16 371.833 131.56L369.193 138.64C368.913 139.32 369.433 139.32 369.633 138.88C373.673 129.2 376.593 126.44 379.153 126.44C380.353 126.44 380.793 127.16 380.793 127.8C380.793 128.72 380.193 129.56 379.313 129.56C378.593 129.56 378.273 129.12 377.473 129.12C375.593 129.12 372.593 132.08 368.913 141.88C367.873 144.96 368.393 146.4 368.153 147.24C367.953 148.04 367.073 148.52 366.113 148.52C364.953 148.52 364.473 147.68 365.393 144.96L369.753 131.8Z" fill="black"/>
<path d="M348.002 148.48C345.842 148.48 344.842 146.44 344.842 143.72C344.842 136.88 351.202 126.44 356.562 126.44C358.322 126.44 359.242 127.52 359.642 129.48C359.762 130.36 360.082 130.4 360.362 129.56L360.642 128.8C360.882 128.16 361.082 127.92 361.602 127.92C362.442 127.92 363.082 126.28 363.802 126.28C364.082 126.28 364.203 126.52 364.003 126.84C362.323 130.16 360.642 133.44 359.402 137.4L357.562 142.96C356.922 144.8 356.922 145.84 357.802 145.84C358.762 145.84 360.122 144.2 362.682 138.48C362.922 138 363.082 137.84 363.322 137.84C363.562 137.84 363.602 137.96 363.402 138.44C361.322 143.16 358.922 148.24 356.482 148.24C354.882 148.24 354.562 147.4 354.562 146.4C354.562 145.56 354.882 144.6 355.402 143.16L356.002 141.36C356.162 140.88 356.042 140.6 355.802 140.6C355.522 140.6 355.242 140.84 355.042 141.24C353.962 143.2 350.842 148.48 348.002 148.48ZM347.362 143.12C347.362 145.56 347.962 146.36 349.002 146.36C351.842 146.36 355.522 140.64 357.602 135.16C358.082 133.72 358.562 132.16 358.562 130.56C358.562 128.52 358.042 127.36 356.602 127.36C352.122 127.36 347.362 136.92 347.362 143.12Z" fill="black"/>
<path d="M337.504 148.2C336.704 148.2 335.864 148 334.024 148H323.744C322.424 148 320.384 148.2 318.944 148.2C318.584 148.2 318.464 148.12 318.464 147.88C318.464 147.64 318.584 147.56 318.904 147.56C321.344 147.56 323.264 147.08 324.144 144.16L331.584 119.84C332.464 116.92 331.144 116.44 328.664 116.44C328.384 116.44 328.224 116.36 328.224 116.12C328.224 115.88 328.384 115.8 328.704 115.8C330.184 115.8 332.184 116 333.504 116H343.664C345.344 116 346.304 115.8 347.024 115.8C347.704 115.8 347.744 116.2 347.544 116.84C347.184 118.12 346.784 119.36 346.504 120.6C346.264 121.84 346.104 123.08 345.904 124.68C345.864 125.08 345.704 125.32 345.464 125.32C345.224 125.32 345.184 125.12 345.224 124.72C345.864 118.16 345.424 116.56 341.504 116.56H336.784C335.584 116.56 334.824 117.24 334.504 118.36L331.104 129.44C330.864 130.28 331.344 131 332.184 131L336.624 130.96C339.624 131 340.704 129.2 341.464 126.64C341.584 126.32 341.704 126.24 341.904 126.28C342.104 126.36 342.144 126.52 342.064 126.88C341.624 128.28 340.904 130 340.424 131.48L340.584 131.04C340.144 132.48 339.744 134.36 339.344 135.76C339.224 136.12 339.104 136.24 338.864 136.16C338.664 136.12 338.624 135.96 338.744 135.64C339.504 133.08 339.464 131.52 336.464 131.52H332.064C331.184 131.52 330.264 132.2 330.024 133L326.344 145.04C325.784 146.92 325.944 147.44 327.624 147.44H332.304C335.784 147.44 337.344 146.08 342.384 138.92C342.664 138.52 342.904 138.28 343.064 138.28C343.304 138.28 343.304 138.52 343.064 138.88C342.344 140.12 341.784 140.88 340.864 142.4C339.544 144.48 339.144 145.6 338.664 147.16C338.464 147.8 338.184 148.2 337.504 148.2Z" fill="black"/>
<path d="M296.697 156.8C295.337 156.8 294.417 156.2 294.417 155.36C294.417 154.56 295.097 153.8 296.257 153.8C297.817 153.8 298.457 154.96 299.657 154.96C302.057 154.96 303.297 152.08 305.497 144.8L310.457 128.48C310.617 127.96 310.577 127.6 309.857 127.6H307.337C306.777 127.6 306.937 126.96 307.497 126.96C309.577 126.96 310.977 126.72 311.457 125.2L311.777 124.16C313.257 119.36 314.977 115.2 320.017 115.2C321.657 115.2 322.937 115.96 322.937 116.92C322.937 117.64 322.497 118.24 321.497 118.24C320.257 118.24 318.657 116.48 317.337 116.48C316.497 116.48 316.097 117.08 315.417 119.24C314.857 121 314.457 122.96 314.097 124.36L313.697 125.72C313.417 126.64 313.697 127 314.337 127C315.537 127 317.257 126.68 318.057 126.68C318.777 126.68 318.697 127.64 317.857 127.64H314.097C313.577 127.64 313.057 127.84 312.817 128.56L307.937 144.6C305.857 151.36 302.097 156.8 296.697 156.8Z" fill="black"/>
<path d="M292.581 148.52C289.621 148.52 287.941 146.16 287.941 142.44C287.941 134.84 293.701 126.4 299.021 126.4C301.981 126.4 303.741 128.92 303.741 132.64C303.741 140.2 297.941 148.52 292.581 148.52ZM290.421 142.6C290.421 145.36 291.181 147.44 293.301 147.44C296.941 147.44 301.221 139.2 301.221 132.44C301.221 129.68 300.421 127.48 298.301 127.48C294.661 127.48 290.421 135.88 290.421 142.6Z" fill="black"/>
<path d="M259.186 157.16C257.986 157.16 257.426 156.6 257.426 155.92C257.426 154.92 258.306 154.12 259.386 154.12C260.666 154.12 261.146 155.2 262.746 155.2C263.906 155.2 267.626 152.52 268.066 147.76C268.626 141.6 268.746 135.04 268.706 131.72C268.706 128.84 268.426 128.6 267.746 128.6C266.786 128.6 265.546 131.24 264.466 133.52C264.186 134.12 263.746 133.88 263.946 133.36C264.786 130.92 266.466 126.56 268.586 126.56C270.306 126.56 270.866 127.92 270.906 131.56C270.906 134.68 270.786 139.96 270.226 146.8C270.146 147.68 270.506 147.8 270.986 147.08C275.586 140.32 277.266 135.28 277.266 131.88C277.266 129.72 276.226 128.68 276.226 127.56C276.226 127 276.586 126.4 277.346 126.4C278.386 126.4 278.986 127.56 278.986 130.2C278.986 134.48 276.346 140.12 272.146 146.12C267.826 152.32 263.866 157.16 259.186 157.16Z" fill="black"/>
<path d="M249.366 131.72C250.046 129.92 250.086 128.84 249.206 128.84C248.246 128.8 246.526 130.4 243.806 136.04C243.566 136.52 243.406 136.68 243.166 136.68C242.926 136.68 242.846 136.52 243.086 136.08C245.286 131.44 248.166 126.4 250.606 126.48C252.166 126.52 252.486 127.36 252.446 128.36C252.446 129.2 252.046 130.12 251.486 131.56L250.206 134.84C249.966 135.44 250.126 135.6 250.286 135.6C250.446 135.6 250.726 135.48 250.966 135.04C254.686 128.56 257.246 126.44 259.406 126.44C260.926 126.44 261.726 127.4 261.726 128.92C261.726 131.8 259.086 137.12 256.606 143.16C255.886 144.96 255.806 146 256.686 146.04C257.646 146.08 259.086 144.52 261.926 138.92C262.206 138.48 262.366 138.32 262.606 138.32C262.846 138.32 262.886 138.48 262.646 138.96C260.366 143.52 257.686 148.52 255.246 148.4C253.646 148.32 253.406 147.44 253.446 146.44C253.486 145.64 253.766 144.64 254.286 143.2C256.526 137.56 259.246 131.84 259.246 129.76C259.246 128.76 258.926 128.28 258.286 128.28C256.126 128.28 251.126 133.52 248.246 141.88C247.246 144.96 247.766 146.4 247.526 147.24C247.286 148.04 246.446 148.52 245.486 148.52C244.326 148.52 243.806 147.68 244.726 144.96L249.366 131.72Z" fill="black"/>
<path d="M227.456 148.48C225.296 148.48 224.296 146.44 224.296 143.72C224.296 136.88 230.656 126.44 236.016 126.44C237.776 126.44 238.696 127.52 239.096 129.48C239.216 130.36 239.536 130.4 239.816 129.56L240.096 128.8C240.336 128.16 240.536 127.92 241.056 127.92C241.896 127.92 242.536 126.28 243.256 126.28C243.536 126.28 243.656 126.52 243.456 126.84C241.776 130.16 240.096 133.44 238.856 137.4L237.016 142.96C236.376 144.8 236.376 145.84 237.256 145.84C238.216 145.84 239.576 144.2 242.136 138.48C242.376 138 242.536 137.84 242.776 137.84C243.016 137.84 243.056 137.96 242.856 138.44C240.776 143.16 238.376 148.24 235.936 148.24C234.336 148.24 234.016 147.4 234.016 146.4C234.016 145.56 234.336 144.6 234.856 143.16L235.456 141.36C235.616 140.88 235.496 140.6 235.256 140.6C234.976 140.6 234.696 140.84 234.496 141.24C233.416 143.2 230.296 148.48 227.456 148.48ZM226.816 143.12C226.816 145.56 227.416 146.36 228.456 146.36C231.296 146.36 234.976 140.64 237.056 135.16C237.536 133.72 238.016 132.16 238.016 130.56C238.016 128.52 237.496 127.36 236.056 127.36C231.576 127.36 226.816 136.92 226.816 143.12Z" fill="black"/>
<path d="M204.581 156.8C203.381 156.8 202.061 157 200.781 157C200.501 157 200.381 156.92 200.381 156.68C200.381 156.44 200.501 156.36 200.781 156.36C202.941 156.36 204.381 155.88 205.301 152.96L211.821 132.52C211.941 132.12 211.781 132 211.461 132.32C210.421 133.6 208.821 135 206.421 136.8C205.661 137.4 205.421 136.52 205.861 136.16C209.461 133.64 210.941 131.8 212.581 130.12C213.061 128.2 213.581 126.28 214.101 124.12C214.501 122.52 215.021 122 215.701 122C216.781 122 216.781 123.16 216.621 124.04C216.301 125.76 214.901 128.72 214.341 130.44L212.981 134.76C212.861 135.16 212.901 135.4 213.101 135.4C213.261 135.4 213.421 135.32 213.661 134.84C215.781 130.92 218.901 126.44 221.581 126.44C223.421 126.44 224.341 128.32 224.341 131.2C224.341 138.08 218.661 148.32 213.501 148.32C211.981 148.32 210.661 147.36 210.221 146.48C210.061 146.16 209.821 146.16 209.661 146.64L207.661 152.96C206.741 155.88 208.981 156.36 212.141 156.36C212.621 156.36 212.821 156.44 212.821 156.68C212.821 156.92 212.621 157 212.101 157C210.461 157 207.661 156.8 205.621 156.8H204.581ZM210.981 142.36C210.421 144.36 211.581 147.44 213.701 147.44C217.461 147.44 221.941 137.96 221.941 131.8C221.941 129.76 221.621 128.56 220.421 128.56C217.741 128.56 213.061 135.24 211.261 141.44L210.981 142.36Z" fill="black"/>
<path d="M180.757 148.52C179.317 148.52 178.917 147.68 179.997 144.96C181.597 140.92 182.997 136.68 184.637 131.8C185.277 129.96 185.317 128.88 184.437 128.88C183.477 128.88 181.797 130.52 179.157 136.2C178.917 136.68 178.757 136.84 178.517 136.84C178.277 136.8 178.197 136.68 178.437 136.2C180.557 131.52 183.357 126.48 185.797 126.48C187.397 126.52 187.677 127.36 187.677 128.4C187.677 129.2 187.277 130.16 186.717 131.56L185.357 135.24C185.157 135.84 185.317 136 185.477 136C185.717 136 185.877 135.88 186.117 135.48C189.837 128.96 192.037 126.44 194.197 126.44C195.597 126.44 196.357 127.44 196.357 128.84C196.357 130.32 195.477 132 194.437 134.16C194.157 134.76 194.197 134.88 194.397 134.88C194.597 134.88 194.637 134.88 194.997 134.28C198.357 128.6 200.717 126.44 202.757 126.44C204.237 126.44 204.797 127.4 204.797 128.92C204.797 131.8 202.157 137.12 199.677 143.16C198.957 144.96 198.917 146 199.797 146.04C200.717 146.12 202.157 144.52 205.037 138.96C205.317 138.48 205.477 138.36 205.717 138.36C205.957 138.36 205.997 138.52 205.757 138.96C203.437 143.56 200.757 148.52 198.317 148.4C196.757 148.32 196.477 147.44 196.517 146.44C196.557 145.64 196.837 144.64 197.397 143.2C199.637 137.56 202.317 131.84 202.317 129.76C202.317 128.76 202.037 128.28 201.357 128.28C199.037 128.28 194.557 134.24 191.957 142C190.717 145.64 191.357 146.4 191.117 147.24C190.917 148.04 190.037 148.52 189.077 148.52C187.637 148.52 187.237 147.68 188.357 144.96C189.957 140.76 193.997 132.48 193.997 129.76C193.997 128.76 193.717 128.28 193.077 128.28C191.277 128.28 186.277 134.32 183.677 142C182.397 145.64 182.997 146.4 182.757 147.24C182.557 148.04 181.677 148.52 180.757 148.52Z" fill="black"/>
<path d="M166.331 148.52C163.371 148.52 161.691 146.16 161.691 142.44C161.691 134.84 167.451 126.4 172.771 126.4C175.731 126.4 177.491 128.92 177.491 132.64C177.491 140.2 171.691 148.52 166.331 148.52ZM164.171 142.6C164.171 145.36 164.931 147.44 167.051 147.44C170.691 147.44 174.971 139.2 174.971 132.44C174.971 129.68 174.171 127.48 172.051 127.48C168.411 127.48 164.171 135.88 164.171 142.6Z" fill="black"/>
<path d="M156.773 115.36C159.893 115.36 161.253 115.8 162.333 115.8C163.533 115.8 163.813 115.52 164.173 115.52C164.373 115.52 164.413 115.68 164.333 116C162.893 120.36 162.293 124.52 161.853 126.24C161.733 126.6 161.573 126.8 161.373 126.8C161.173 126.8 161.093 126.64 161.133 126.24C161.813 122.76 162.053 120.36 161.573 118.8C161.013 116.84 159.453 116.12 156.533 116.12C147.333 116.12 140.693 128.88 140.693 138.32C140.693 143.72 142.693 147.12 147.013 147.12C152.173 147.12 157.813 140.96 160.373 135C160.613 134.48 160.693 134.24 160.973 134.24C161.093 134.24 161.173 134.28 161.173 134.44C161.173 134.56 161.093 134.76 160.973 135C158.213 141.64 152.293 148.64 145.813 148.64C140.413 148.64 137.973 144.52 137.973 138.76C137.973 129.52 145.573 115.36 156.773 115.36Z" fill="black"/>
<path d="M118.463 148.52C115.823 148.52 114.223 146.48 114.223 143.08C114.223 136.68 119.703 126.44 125.263 126.44C127.143 126.44 128.423 127.4 128.423 129.2C128.423 132.44 124.823 136.44 118.783 138.32C117.903 138.52 117.063 139.44 116.903 140.28C116.703 141.28 116.623 142.2 116.623 143C116.623 145.44 117.783 146.52 119.423 146.52C122.103 146.52 124.623 143.48 126.943 138.56C127.223 137.96 127.823 138.24 127.543 138.8C125.343 143.2 122.503 148.52 118.463 148.52ZM117.783 136.76C117.543 137.6 118.023 138.08 118.863 137.84C123.903 136.16 126.263 132.6 126.263 129.28C126.263 128.32 125.983 127.28 124.863 127.28C122.023 127.28 119.263 132.04 117.783 136.76Z" fill="black"/>
<path d="M94.2034 148.52C92.1634 148.52 90.8434 146.96 90.8434 144C90.8434 138.96 95.0434 133.64 99.2034 129.28C99.8034 128.64 99.5634 128.4 99.2034 128.64C99.0434 128.72 98.5234 129 98.1234 129C96.8034 129 95.3634 128.2 94.4834 128.2C93.9234 128.2 93.6434 128.56 93.6434 129C93.6834 129.8 94.5634 130.12 94.5634 131.04C94.5634 131.68 94.0834 132.12 93.5634 132.12C93.1234 132.12 92.6834 131.84 92.6834 130.92C92.6834 130.44 92.8434 129.6 93.3634 128.56C93.9634 127.28 94.6834 126.64 96.0034 126.64C97.0034 126.64 98.7234 127.32 99.6034 127.32C100.123 127.32 100.723 126.88 101.083 126.52C101.363 126.24 101.923 126.64 101.523 127.04C97.9634 131.04 93.2434 138.28 93.2434 143.52C93.2434 145.44 94.0434 146.44 95.5634 146.44C99.3634 146.44 104.323 134.48 104.643 128.56C104.723 127.6 107.403 127.32 107.163 128.56C105.843 135.48 102.403 139.56 102.403 143.72C102.403 145.24 102.883 146.44 104.323 146.44C108.683 146.44 112.443 138.32 112.443 132.8C112.443 130.2 111.403 128.72 111.403 127.52C111.403 126.96 111.803 126.4 112.643 126.4C113.683 126.4 114.123 127.28 114.123 129.6C114.123 137 108.603 148.52 103.323 148.52C101.523 148.52 100.323 147.28 100.323 145.32C100.323 144.48 100.563 143.56 101.003 142.36C101.163 141.92 100.643 141.84 100.403 142.36C98.4034 146.44 96.4834 148.52 94.2034 148.52Z" fill="black"/>
<path d="M60.105 147.88C60.105 147.64 60.225 147.56 60.465 147.56C62.425 147.56 64.225 147.2 65.945 144.64L85.345 115.56C85.425 115.44 85.585 115.36 85.705 115.36H86.065C86.185 115.36 86.265 115.44 86.265 115.56L85.345 143.96C85.265 147.04 86.505 147.56 88.425 147.56C88.665 147.56 88.785 147.64 88.785 147.88C88.785 148.12 88.665 148.2 88.385 148.2C87.265 148.2 85.665 148 84.625 148H83.545C82.185 148 80.105 148.2 78.585 148.2C78.225 148.2 78.105 148.12 78.105 147.88C78.105 147.64 78.225 147.56 78.545 147.56C81.105 147.56 82.825 147.04 82.905 143.96L83.105 138.6C83.145 137.72 82.425 137 81.545 137H73.345C72.465 137 71.345 137.6 70.865 138.32L66.665 144.64C64.945 147.2 66.025 147.56 68.465 147.56C68.785 147.56 68.905 147.64 68.905 147.88C68.905 148.12 68.785 148.2 68.425 148.2C67.105 148.2 65.425 148 64.025 148C62.945 148 61.585 148.2 60.505 148.2C60.225 148.2 60.105 148.12 60.105 147.88ZM73.025 135.08C72.505 135.84 72.825 136.44 73.705 136.44H81.545C82.425 136.44 83.185 135.72 83.225 134.84L83.665 120.8C83.705 119.92 83.305 119.8 82.825 120.56L73.025 135.08Z" fill="black"/>
<path d="M46.3147 148.52C43.6747 148.52 42.0747 146.48 42.0747 143.08C42.0747 136.68 47.5547 126.44 53.1147 126.44C54.9947 126.44 56.2747 127.4 56.2747 129.2C56.2747 132.44 52.6747 136.44 46.6347 138.32C45.7547 138.52 44.9147 139.44 44.7547 140.28C44.5547 141.28 44.4747 142.2 44.4747 143C44.4747 145.44 45.6347 146.52 47.2747 146.52C49.9547 146.52 52.4747 143.48 54.7947 138.56C55.0747 137.96 55.6747 138.24 55.3947 138.8C53.1947 143.2 50.3547 148.52 46.3147 148.52ZM45.6347 136.76C45.3947 137.6 45.8747 138.08 46.7147 137.84C51.7547 136.16 54.1147 132.6 54.1147 129.28C54.1147 128.32 53.8347 127.28 52.7147 127.28C49.8747 127.28 47.1147 132.04 45.6347 136.76Z" fill="black"/>
<path d="M31.2616 119.56C31.8216 117.88 32.0216 116.84 30.2616 116.84C29.3816 116.84 28.9016 116.88 28.3416 116.88C28.0216 116.88 27.8216 116.84 27.8216 116.6C27.8216 116.32 28.0616 116.24 28.5016 116.24C29.5016 116.24 32.4216 116.08 33.6216 115.4C34.2216 115.12 34.7016 114.8 35.1416 114.8C35.5416 114.8 35.5416 114.96 35.3416 115.48C33.8616 119.24 32.2216 123.96 31.1816 126.8L28.1816 134.84C27.9416 135.44 28.0616 135.6 28.2616 135.6C28.3816 135.6 28.5816 135.48 28.7816 135.04C31.5016 130.12 34.6216 126.44 37.7816 126.44C39.2616 126.44 40.0616 127.4 40.0616 128.92C40.0616 131.8 37.4216 137.12 34.9416 143.16C34.2216 144.96 34.1816 146 35.0616 146.04C35.9816 146.08 37.4216 144.52 40.3016 138.92C40.5416 138.48 40.7016 138.32 40.9416 138.32C41.1816 138.32 41.2616 138.48 41.0216 138.96C38.7016 143.52 36.0616 148.52 33.6216 148.4C32.0216 148.32 31.7416 147.44 31.7816 146.44C31.8216 145.64 32.1016 144.64 32.6616 143.2C34.9016 137.56 37.6216 131.84 37.6216 129.76C37.6216 128.76 37.3016 128.28 36.6616 128.28C33.5016 128.28 29.1016 133.52 26.2216 141.88C25.1816 144.96 25.7016 146.4 25.4616 147.24C25.2616 148.04 24.3816 148.52 23.4216 148.52C22.3016 148.52 21.7816 147.68 22.7016 144.96L31.2616 119.56Z" fill="black"/>
<path d="M6.64 148C4.96 148 2.44 148.2 0.6 148.2C0.16 148.2 0 148.12 0 147.88C0 147.64 0.16 147.56 0.56 147.56C3.64 147.56 5.96 147.08 6.88 144.16L14.92 117.8C15.2 117 14.88 116.56 14.08 116.56H11.24C8.28 116.56 6.16 119.44 4.32 124.4C4.16 124.76 4.04 125 3.76 125C3.48 125 3.52 124.76 3.64 124.4C3.92 123.44 4.56 122 5.08 120.36C5.64 118.56 5.68 117.52 5.92 116.72C6.12 116.12 6.36 115.8 6.72 115.8C7.84 115.8 8.68 116 10.44 116H22.96C24.68 116 25.68 115.8 26.8 115.8C27.2 115.8 27.24 116.12 27.04 116.72C26.8 117.52 26.24 118.56 25.68 120.36C25.16 122 24.92 123.44 24.64 124.4C24.52 124.76 24.44 125 24.16 125C23.88 125 23.84 124.8 23.96 124.4C25.16 119.44 24.76 116.56 21.8 116.56H18.96C18.2 116.56 17.64 117 17.4 117.8L9.32 144.16C8.44 147.08 10.2 147.56 13.28 147.56C13.68 147.56 13.84 147.64 13.84 147.88C13.84 148.12 13.68 148.2 13.24 148.2C11.4 148.2 8.88 148 7.2 148H6.64Z" fill="black"/>
<path fill-rule="evenodd" clip-rule="evenodd" d="M186.502 86.4123C209.373 96.1204 235.785 85.4496 245.493 62.5783C255.201 39.7071 244.53 13.2966 221.659 3.5881C198.788 -6.12022 172.376 4.54982 162.668 27.4211C152.96 50.2924 163.631 76.7038 186.502 86.4123ZM171.06 43.3739C170.972 43.7789 170.459 43.9128 170.194 43.5946C165.376 37.818 163.802 32.5097 165.448 28.6135C165.451 28.607 165.448 28.5996 165.441 28.5969C165.435 28.5942 165.432 28.5867 165.435 28.5803C171.879 13.4119 186.197 3.99811 201.604 3.07653C202.182 3.04196 202.314 3.88705 201.773 4.09211C199.65 4.89629 197.556 5.92577 195.52 7.16135C186.96 12.358 179.316 21.2298 174.528 32.5061C172.996 36.1142 171.845 39.7617 171.06 43.3739ZM205.533 64.7447C205.417 64.9495 205.174 65.045 204.95 64.9737C202.294 64.1289 199.591 63.132 196.874 61.9787C187.31 57.9189 179.257 52.6538 173.607 47.2325C173.489 47.1198 173.436 46.9573 173.462 46.7966C174.168 42.4796 175.43 38.0573 177.289 33.6779C181.858 22.9156 189.112 14.5622 197.077 9.72678C205.029 4.89959 213.574 3.63076 220.936 6.73602C220.957 6.7449 220.967 6.76921 220.958 6.79026C220.949 6.8113 220.959 6.8354 220.98 6.84506C221.573 7.1222 222.293 8.05657 222.618 10.4358C222.935 12.7538 222.8 15.9657 222.188 19.8879C220.969 27.7089 217.91 38.0167 213.277 48.9309C210.823 54.7126 208.182 60.0574 205.533 64.7447ZM225.505 68.3046C225.411 68.4334 225.262 68.5088 225.102 68.5074C220.252 68.4646 214.736 67.6792 208.908 66.13C208.594 66.0464 208.444 65.6888 208.602 65.4046C211.161 60.8033 213.689 55.6392 216.039 50.1037C220.739 39.0303 223.885 28.4789 225.152 20.3498C225.784 16.2972 225.963 12.7603 225.591 10.0305C225.558 9.7883 225.832 9.62131 226.023 9.77423C230.667 13.4989 233.901 19.1735 235.446 26.01C237.5 35.0972 236.529 46.1176 231.96 56.8801C230.178 61.0769 227.987 64.9063 225.505 68.3046ZM230.175 68.2554C229.757 68.3037 229.48 67.8399 229.71 67.4873C231.601 64.5797 233.29 61.424 234.722 58.052C239.509 46.7757 240.58 35.1141 238.373 25.3479C238 23.698 237.531 22.0993 236.97 20.5637C236.769 20.0164 237.502 19.568 237.848 20.0369C246.373 31.5907 248.748 47.2194 242.736 61.3946C242.733 61.4 242.727 61.4025 242.722 61.4001C242.716 61.3977 242.71 61.4002 242.708 61.4056C241.166 65.0241 236.81 67.4875 230.175 68.2554ZM172.903 71.5878C173.127 72.1206 172.426 72.6054 172.053 72.1643C164.355 63.0737 160.759 50.9545 162.525 38.9267C162.598 38.4252 163.305 38.3521 163.519 38.8114C164.802 41.56 166.75 44.3265 169.172 46.9836C169.463 47.303 169.762 47.6222 170.068 47.9406C170.174 48.0507 170.224 48.203 170.205 48.3546C169.457 54.2804 169.701 60.0129 170.876 65.2092C171.38 67.4384 172.057 69.5748 172.903 71.5878ZM188.292 83.7478C188.279 83.7782 188.244 83.7924 188.213 83.7794C180.871 80.6387 175.852 73.6142 173.803 64.5471C172.906 60.5812 172.586 56.2471 172.89 51.7271C172.917 51.3159 173.405 51.1205 173.717 51.3903C179.471 56.376 187.023 61.0556 195.702 64.7395C198.207 65.8028 200.707 66.7409 203.177 67.5539C203.484 67.6547 203.619 68.014 203.45 68.2893C201.797 70.997 200.159 73.4253 198.575 75.5168C196.178 78.6811 193.962 81.0093 192.075 82.3918C190.156 83.7973 188.987 83.9398 188.371 83.7146C188.34 83.7032 188.305 83.7173 188.292 83.7478ZM212.173 80.8313C206.19 84.4633 199.871 86.0814 193.972 85.3371C193.712 85.3042 193.636 84.9666 193.848 84.8117C196.07 83.1837 198.49 80.5979 200.967 77.3283C202.786 74.9261 204.664 72.1159 206.544 68.9759C206.661 68.7814 206.893 68.689 207.111 68.7499C212.342 70.2095 217.383 71.0899 222.005 71.3911C222.42 71.4182 222.63 71.907 222.354 72.2177C219.226 75.739 215.773 78.6455 212.173 80.8313ZM209.764 86.6081C209.188 86.6874 208.997 85.8529 209.528 85.6136C210.949 84.9725 212.352 84.2313 213.728 83.3957C218.491 80.5045 222.969 76.475 226.831 71.5277C226.849 71.5048 226.876 71.4913 226.905 71.4904C230.497 71.3869 233.838 70.8666 236.705 69.8811C237.184 69.7164 237.622 70.2752 237.312 70.6765C230.51 79.4927 220.529 85.1269 209.764 86.6081Z" fill="black"/>
</svg>
