<svg width="386" height="40" viewBox="0 0 386 40" fill="none" xmlns="http://www.w3.org/2000/svg">
<path d="M6.26992 31.3503C4.68355 31.3503 2.30401 31.5392 0.566559 31.5392C0.151082 31.5392 0 31.4636 0 31.237C0 31.0104 0.151082 30.9348 0.528788 30.9348C3.43712 30.9348 5.62782 30.4816 6.49654 27.7243L14.0884 2.83286C14.3528 2.07743 14.0507 1.66195 13.2952 1.66195H10.6135C7.81851 1.66195 5.81667 4.38149 4.07922 9.06516C3.92814 9.4051 3.81483 9.63173 3.55044 9.63173C3.28604 9.63173 3.32381 9.4051 3.43712 9.06516C3.70152 8.15864 4.30585 6.79887 4.79687 5.25024C5.32565 3.55052 5.36342 2.56846 5.59005 1.81303C5.7789 1.24646 6.00552 0.944286 6.34546 0.944286C7.40304 0.944286 8.19622 1.13315 9.85812 1.13315H21.6803C23.3045 1.13315 24.2487 0.944286 25.3063 0.944286C25.684 0.944286 25.7218 1.24646 25.5329 1.81303C25.3063 2.56846 24.7775 3.55052 24.2487 5.25024C23.7577 6.79887 23.5311 8.15864 23.2667 9.06516C23.1534 9.4051 23.0778 9.63173 22.8134 9.63173C22.549 9.63173 22.5113 9.44287 22.6246 9.06516C23.7577 4.38149 23.38 1.66195 20.585 1.66195H17.9033C17.1856 1.66195 16.6568 2.07743 16.4302 2.83286L8.80055 27.7243C7.96959 30.4816 9.6315 30.9348 12.5398 30.9348C12.9175 30.9348 13.0686 31.0104 13.0686 31.237C13.0686 31.4636 12.9175 31.5392 12.5021 31.5392C10.7646 31.5392 8.38507 31.3503 6.79871 31.3503H6.26992Z" fill="#F1E3E6"/>
<path d="M29.5192 4.49481C30.048 2.9084 30.2368 1.92635 28.5749 1.92635C27.744 1.92635 27.2907 1.96412 26.7619 1.96412C26.4598 1.96412 26.2709 1.92635 26.2709 1.69972C26.2709 1.43532 26.4975 1.35977 26.913 1.35977C27.8573 1.35977 30.6145 1.20869 31.7477 0.566572C32.3142 0.302172 32.7675 0 33.1829 0C33.5606 0 33.5606 0.151086 33.3718 0.642116C31.9743 4.19263 30.4257 8.64967 29.4437 11.3314L26.6109 18.9235C26.3842 19.4901 26.4975 19.6412 26.6864 19.6412C26.7997 19.6412 26.9886 19.5279 27.1774 19.1124C29.7458 14.4665 32.6919 10.9915 35.6758 10.9915C37.0733 10.9915 37.8287 11.898 37.8287 13.3333C37.8287 16.0529 35.3359 21.0765 32.9941 26.78C32.3142 28.4797 32.2764 29.4618 33.1074 29.4995C33.9761 29.5373 35.3359 28.0642 38.0553 22.7762C38.282 22.3607 38.4331 22.2096 38.6597 22.2096C38.8863 22.2096 38.9618 22.3607 38.7352 22.814C36.5445 27.1199 34.0517 31.8414 31.7477 31.728C30.2368 31.6525 29.9724 30.8215 30.0102 29.8772C30.048 29.1218 30.3124 28.1775 30.8412 26.8178C32.9563 21.492 35.5247 16.0907 35.5247 14.1265C35.5247 13.1822 35.2226 12.729 34.6182 12.729C31.6343 12.729 27.4796 17.6771 24.7601 25.5713C23.7781 28.4797 24.2691 29.8395 24.0425 30.6327C23.8536 31.3881 23.0227 31.8414 22.1162 31.8414C21.0586 31.8414 20.5676 31.0482 21.4363 28.4797L29.5192 4.49481Z" fill="#F1E3E6"/>
<path d="M43.7333 31.8414C41.2405 31.8414 39.7296 29.915 39.7296 26.7044C39.7296 20.661 44.9042 10.9915 50.1543 10.9915C51.9295 10.9915 53.1382 11.898 53.1382 13.5977C53.1382 16.6572 49.7389 20.4344 44.0355 22.2096C43.2045 22.3985 42.4114 23.2672 42.2603 24.0604C42.0714 25.0047 41.9959 25.8735 41.9959 26.6289C41.9959 28.933 43.0912 29.9528 44.6398 29.9528C47.1705 29.9528 49.55 27.0822 51.7407 22.4363C52.0051 21.8697 52.5716 22.1341 52.3073 22.6629C50.2299 26.8178 47.5482 31.8414 43.7333 31.8414ZM43.0912 20.7365C42.8646 21.5297 43.3179 21.983 44.111 21.7564C48.8701 20.17 51.0986 16.8083 51.0986 13.6733C51.0986 12.7668 50.8342 11.7847 49.7766 11.7847C47.0949 11.7847 44.4887 16.2795 43.0912 20.7365Z" fill="#F1E3E6"/>
<path d="M56.755 31.237C56.755 31.0104 56.8683 30.9348 57.095 30.9348C58.9457 30.9348 60.6454 30.5949 62.2695 28.1775L80.5883 0.717658C80.6638 0.604345 80.8149 0.528801 80.9282 0.528801H81.2681C81.3815 0.528801 81.457 0.604345 81.457 0.717658L80.5883 27.5354C80.5127 30.4438 81.6836 30.9348 83.4966 30.9348C83.7232 30.9348 83.8366 31.0104 83.8366 31.237C83.8366 31.4636 83.7232 31.5392 83.4588 31.5392C82.4013 31.5392 80.8904 31.3503 79.9084 31.3503H78.8886C77.6044 31.3503 75.6403 31.5392 74.205 31.5392C73.8651 31.5392 73.7518 31.4636 73.7518 31.237C73.7518 31.0104 73.8651 30.9348 74.1673 30.9348C76.5846 30.9348 78.2087 30.4438 78.2843 27.5354L78.4731 22.474C78.5109 21.6431 77.831 20.9632 77.0001 20.9632H69.2571C68.4261 20.9632 67.3686 21.5297 66.9153 22.2096L62.9494 28.1775C61.3253 30.5949 62.3451 30.9348 64.6491 30.9348C64.9512 30.9348 65.0646 31.0104 65.0646 31.237C65.0646 31.4636 64.9513 31.5392 64.6113 31.5392C63.3649 31.5392 61.7785 31.3503 60.4566 31.3503C59.4367 31.3503 58.1525 31.5392 57.1327 31.5392C56.8683 31.5392 56.755 31.4636 56.755 31.237ZM68.9549 19.1501C68.4639 19.8678 68.7661 20.4344 69.597 20.4344H77.0001C77.831 20.4344 78.5487 19.7545 78.5864 18.9235L79.0019 5.66572C79.0397 4.83475 78.662 4.72144 78.2087 5.43909L68.9549 19.1501Z" fill="#F1E3E6"/>
<path d="M88.953 31.8414C87.0267 31.8414 85.7803 30.3683 85.7803 27.5732C85.7803 22.814 89.7462 17.7904 93.6743 13.6733C94.2409 13.0689 94.0142 12.8423 93.6743 13.0689C93.5232 13.1445 93.0322 13.4089 92.6545 13.4089C91.4081 13.4089 90.0483 12.6534 89.2174 12.6534C88.6886 12.6534 88.4242 12.9934 88.4242 13.4089C88.462 14.1643 89.2929 14.4665 89.2929 15.3352C89.2929 15.9396 88.8397 16.3551 88.3487 16.3551C87.9332 16.3551 87.5177 16.0907 87.5177 15.2219C87.5177 14.7687 87.6688 13.9754 88.1598 12.9934C88.7264 11.7847 89.4062 11.1804 90.6527 11.1804C91.5969 11.1804 93.2211 11.8225 94.052 11.8225C94.543 11.8225 95.1096 11.407 95.4495 11.067C95.7139 10.8026 96.2427 11.1804 95.865 11.5581C92.5034 15.3352 88.0465 22.1719 88.0465 27.1199C88.0465 28.933 88.8019 29.8772 90.2372 29.8772C93.8254 29.8772 98.5089 18.5836 98.8111 12.9934C98.8867 12.0869 101.417 11.8225 101.191 12.9934C99.9442 19.5279 96.696 23.3805 96.696 27.3088C96.696 28.7441 97.1492 29.8772 98.5089 29.8772C102.626 29.8772 106.176 22.2096 106.176 16.9972C106.176 14.542 105.194 13.1445 105.194 12.0113C105.194 11.4825 105.572 10.9537 106.365 10.9537C107.347 10.9537 107.763 11.7847 107.763 13.9754C107.763 20.9632 102.55 31.8414 97.5647 31.8414C95.865 31.8414 94.7319 30.6704 94.7319 28.8196C94.7319 28.0264 94.9585 27.1577 95.374 26.0246C95.5251 25.6091 95.0341 25.5335 94.8074 26.0246C92.9189 29.8772 91.1059 31.8414 88.953 31.8414Z" fill="#F1E3E6"/>
<path d="M111.861 31.8414C109.368 31.8414 107.857 29.915 107.857 26.7044C107.857 20.661 113.031 10.9915 118.282 10.9915C120.057 10.9915 121.265 11.898 121.265 13.5977C121.265 16.6572 117.866 20.4344 112.163 22.2096C111.332 22.3985 110.539 23.2672 110.387 24.0604C110.199 25.0047 110.123 25.8735 110.123 26.6289C110.123 28.933 111.218 29.9528 112.767 29.9528C115.298 29.9528 117.677 27.0822 119.868 22.4363C120.132 21.8697 120.699 22.1341 120.434 22.6629C118.357 26.8178 115.675 31.8414 111.861 31.8414ZM111.218 20.7365C110.992 21.5297 111.445 21.983 112.238 21.7564C116.997 20.17 119.226 16.8083 119.226 13.6733C119.226 12.7668 118.961 11.7847 117.904 11.7847C115.222 11.7847 112.616 16.2795 111.218 20.7365Z" fill="#F1E3E6"/>
<path d="M148.036 0.528801C150.982 0.528801 152.266 0.944286 153.286 0.944286C154.419 0.944286 154.683 0.679887 155.023 0.679887C155.212 0.679887 155.25 0.830973 155.174 1.13315C153.815 5.25024 153.248 9.17847 152.833 10.8026C152.719 11.1426 152.568 11.3314 152.379 11.3314C152.19 11.3314 152.115 11.1804 152.153 10.8026C152.795 7.51653 153.021 5.25024 152.568 3.77715C152.039 1.92635 150.566 1.24646 147.809 1.24646C139.122 1.24646 132.852 13.2956 132.852 22.2096C132.852 27.3088 134.74 30.5194 138.82 30.5194C143.692 30.5194 149.018 24.7026 151.435 19.0746C151.662 18.5836 151.737 18.3569 152.002 18.3569C152.115 18.3569 152.19 18.3947 152.19 18.5458C152.19 18.6591 152.115 18.848 152.002 19.0746C149.395 25.3447 143.805 31.9547 137.686 31.9547C132.587 31.9547 130.283 28.0642 130.283 22.6251C130.283 13.8999 137.46 0.528801 148.036 0.528801Z" fill="#F1E3E6"/>
<path d="M157.06 31.8414C154.265 31.8414 152.679 29.6128 152.679 26.1001C152.679 18.9235 158.118 10.9537 163.141 10.9537C165.936 10.9537 167.598 13.3333 167.598 16.8461C167.598 23.9849 162.121 31.8414 157.06 31.8414ZM155.021 26.2512C155.021 28.8574 155.738 30.8215 157.74 30.8215C161.177 30.8215 165.219 23.0406 165.219 16.6572C165.219 14.051 164.463 11.9736 162.461 11.9736C159.024 11.9736 155.021 19.9056 155.021 26.2512Z" fill="#F1E3E6"/>
<path d="M170.683 31.8414C169.323 31.8414 168.945 31.0482 169.965 28.4797C171.476 24.6648 172.798 20.661 174.346 16.0529C174.951 14.3154 174.988 13.2956 174.158 13.2956C173.251 13.2956 171.665 14.8442 169.172 20.2077C168.945 20.661 168.794 20.8121 168.567 20.8121C168.341 20.7743 168.265 20.661 168.492 20.2077C170.494 15.7885 173.138 11.0293 175.442 11.0293C176.953 11.067 177.217 11.8602 177.217 12.8423C177.217 13.5977 176.839 14.5043 176.31 15.8263L175.026 19.3012C174.837 19.8678 174.988 20.0189 175.14 20.0189C175.366 20.0189 175.517 19.9056 175.744 19.5279C179.257 13.3711 181.334 10.9915 183.374 10.9915C184.696 10.9915 185.413 11.9358 185.413 13.2578C185.413 14.6553 184.582 16.2417 183.6 18.2814C183.336 18.848 183.374 18.9613 183.562 18.9613C183.751 18.9613 183.789 18.9613 184.129 18.3947C187.302 13.0312 189.53 10.9915 191.456 10.9915C192.854 10.9915 193.383 11.898 193.383 13.3333C193.383 16.0529 190.89 21.0765 188.548 26.78C187.868 28.4797 187.83 29.4618 188.661 29.4995C189.53 29.5751 190.89 28.0642 193.609 22.814C193.874 22.3607 194.025 22.2474 194.251 22.2474C194.478 22.2474 194.516 22.3985 194.289 22.814C192.099 27.1577 189.568 31.8414 187.264 31.728C185.791 31.6525 185.526 30.8215 185.564 29.8772C185.602 29.1218 185.866 28.1775 186.395 26.8178C188.51 21.492 191.041 16.0907 191.041 14.1265C191.041 13.1822 190.777 12.729 190.135 12.729C187.944 12.729 183.713 18.3569 181.258 25.6846C180.088 29.1218 180.692 29.8395 180.465 30.6327C180.276 31.3881 179.445 31.8414 178.539 31.8414C177.179 31.8414 176.801 31.0482 177.859 28.4797C179.37 24.5137 183.185 16.695 183.185 14.1265C183.185 13.1822 182.92 12.729 182.316 12.729C180.616 12.729 175.895 18.4325 173.44 25.6846C172.231 29.1218 172.798 29.8395 172.571 30.6327C172.382 31.3881 171.551 31.8414 170.683 31.8414Z" fill="#F1E3E6"/>
<path d="M193.179 39.6601C192.045 39.6601 190.799 39.8489 189.59 39.8489C189.326 39.8489 189.213 39.7734 189.213 39.5467C189.213 39.3201 189.326 39.2446 189.59 39.2446C191.63 39.2446 192.99 38.7913 193.858 36.034L200.015 16.7328C200.128 16.3551 199.977 16.2417 199.675 16.5439C198.693 17.7526 197.182 19.0746 194.916 20.7743C194.198 21.3409 193.972 20.5099 194.387 20.17C197.787 17.7904 199.184 16.0529 200.733 14.4665C201.186 12.6534 201.677 10.8404 202.168 8.80076C202.546 7.2899 203.037 6.79887 203.679 6.79887C204.699 6.79887 204.699 7.89424 204.548 8.72521C204.245 10.3494 202.923 13.1445 202.395 14.7687L201.11 18.848C200.997 19.2257 201.035 19.4523 201.224 19.4523C201.375 19.4523 201.526 19.3768 201.752 18.9235C203.754 15.2219 206.7 10.9915 209.231 10.9915C210.969 10.9915 211.837 12.7668 211.837 15.4863C211.837 21.983 206.474 31.6525 201.601 31.6525C200.166 31.6525 198.92 30.746 198.504 29.915C198.353 29.6128 198.127 29.6128 197.975 30.0661L196.087 36.034C195.218 38.7913 197.333 39.2446 200.317 39.2446C200.77 39.2446 200.959 39.3201 200.959 39.5467C200.959 39.7734 200.77 39.8489 200.279 39.8489C198.731 39.8489 196.087 39.6601 194.161 39.6601H193.179ZM199.222 26.0246C198.693 27.9131 199.788 30.8215 201.79 30.8215C205.341 30.8215 209.571 21.8697 209.571 16.0529C209.571 14.1265 209.269 12.9934 208.136 12.9934C205.605 12.9934 201.186 19.3012 199.486 25.1558L199.222 26.0246Z" fill="#F1E3E6"/>
<path d="M214.778 31.8036C212.739 31.8036 211.794 29.8772 211.794 27.3088C211.794 20.8499 217.8 10.9915 222.861 10.9915C224.523 10.9915 225.392 12.0113 225.77 13.8621C225.883 14.6931 226.185 14.7309 226.449 13.9377L226.714 13.22C226.94 12.6157 227.129 12.389 227.62 12.389C228.414 12.389 229.018 10.8404 229.698 10.8404C229.962 10.8404 230.075 11.067 229.887 11.3692C228.3 14.5043 226.714 17.6015 225.543 21.3409L223.806 26.5911C223.201 28.3286 223.201 29.3107 224.032 29.3107C224.939 29.3107 226.223 27.762 228.64 22.3607C228.867 21.9075 229.018 21.7564 229.244 21.7564C229.471 21.7564 229.509 21.8697 229.32 22.3229C227.356 26.78 225.09 31.577 222.786 31.577C221.275 31.577 220.973 30.7838 220.973 29.8395C220.973 29.0463 221.275 28.1398 221.766 26.78L222.332 25.0803C222.484 24.627 222.37 24.3626 222.144 24.3626C221.879 24.3626 221.615 24.5892 221.426 24.967C220.406 26.8178 217.46 31.8036 214.778 31.8036ZM214.174 26.7422C214.174 29.0463 214.741 29.8017 215.723 29.8017C218.404 29.8017 221.879 24.4004 223.843 19.2257C224.297 17.8659 224.75 16.3928 224.75 14.882C224.75 12.9556 224.259 11.8602 222.899 11.8602C218.669 11.8602 214.174 20.8876 214.174 26.7422Z" fill="#F1E3E6"/>
<path d="M235.467 15.9773C236.109 14.2776 236.147 13.2578 235.316 13.2578C234.41 13.22 232.785 14.7309 230.217 20.0567C229.99 20.5099 229.839 20.661 229.613 20.661C229.386 20.661 229.311 20.5099 229.537 20.0944C231.615 15.7129 234.334 10.9537 236.638 11.0293C238.111 11.067 238.413 11.8602 238.376 12.8045C238.376 13.5977 237.998 14.4665 237.469 15.8263L236.26 18.9235C236.034 19.4901 236.185 19.6412 236.336 19.6412C236.487 19.6412 236.751 19.5279 236.978 19.1124C240.491 12.9934 242.908 10.9915 244.948 10.9915C246.383 10.9915 247.138 11.898 247.138 13.3333C247.138 16.0529 244.645 21.0765 242.304 26.78C241.624 28.4797 241.548 29.4618 242.379 29.4995C243.286 29.5373 244.645 28.0642 247.327 22.7762C247.592 22.3607 247.743 22.2096 247.969 22.2096C248.196 22.2096 248.234 22.3607 248.007 22.814C245.854 27.1199 243.323 31.8414 241.019 31.728C239.509 31.6525 239.282 30.8215 239.32 29.8772C239.358 29.1218 239.622 28.1775 240.113 26.8178C242.228 21.492 244.797 16.0907 244.797 14.1265C244.797 13.1822 244.494 12.729 243.89 12.729C241.85 12.729 237.129 17.6771 234.41 25.5713C233.465 28.4797 233.956 29.8395 233.73 30.6327C233.503 31.3881 232.71 31.8414 231.803 31.8414C230.708 31.8414 230.217 31.0482 231.086 28.4797L235.467 15.9773Z" fill="#F1E3E6"/>
<path d="M244.74 40C243.607 40 243.079 39.4712 243.079 38.8291C243.079 37.8848 243.91 37.1294 244.929 37.1294C246.138 37.1294 246.591 38.1492 248.102 38.1492C249.197 38.1492 252.71 35.6185 253.126 31.1237C253.654 25.3069 253.768 19.1124 253.73 15.9773C253.73 13.2578 253.465 13.0312 252.823 13.0312C251.917 13.0312 250.746 15.5241 249.726 17.6771C249.462 18.2436 249.046 18.017 249.235 17.526C250.028 15.2219 251.615 11.1048 253.617 11.1048C255.241 11.1048 255.769 12.389 255.807 15.8263C255.807 18.7724 255.694 23.7583 255.165 30.2172C255.09 31.0482 255.43 31.1615 255.883 30.4816C260.226 24.0982 261.813 19.339 261.813 16.1284C261.813 14.0888 260.831 13.1067 260.831 12.0491C260.831 11.5203 261.171 10.9537 261.888 10.9537C262.87 10.9537 263.437 12.0491 263.437 14.542C263.437 18.5836 260.944 23.9093 256.978 29.5751C252.899 35.4297 249.16 40 244.74 40Z" fill="#F1E3E6"/>
<path d="M276.274 31.8414C273.479 31.8414 271.892 29.6128 271.892 26.1001C271.892 18.9235 277.331 10.9537 282.355 10.9537C285.15 10.9537 286.812 13.3333 286.812 16.8461C286.812 23.9849 281.335 31.8414 276.274 31.8414ZM274.234 26.2512C274.234 28.8574 274.952 30.8215 276.953 30.8215C280.391 30.8215 284.432 23.0406 284.432 16.6572C284.432 14.051 283.677 11.9736 281.675 11.9736C278.238 11.9736 274.234 19.9056 274.234 26.2512Z" fill="#F1E3E6"/>
<path d="M280.16 39.6601C278.876 39.6601 278.007 39.0935 278.007 38.3003C278.007 37.5449 278.649 36.8272 279.745 36.8272C281.218 36.8272 281.822 37.9226 282.955 37.9226C285.221 37.9226 286.392 35.203 288.47 28.3286L293.153 12.9178C293.304 12.4268 293.267 12.0869 292.587 12.0869H290.207C289.678 12.0869 289.829 11.4825 290.358 11.4825C292.322 11.4825 293.644 11.2559 294.097 9.82059L294.4 8.83853C295.797 4.30595 297.421 0.377714 302.18 0.377714C303.729 0.377714 304.938 1.09537 304.938 2.00189C304.938 2.68177 304.522 3.24835 303.578 3.24835C302.407 3.24835 300.896 1.5864 299.65 1.5864C298.857 1.5864 298.479 2.15297 297.837 4.19263C297.308 5.85458 296.93 7.70538 296.59 9.02739L296.213 10.3116C295.948 11.1804 296.213 11.5203 296.817 11.5203C297.95 11.5203 299.574 11.2181 300.33 11.2181C301.009 11.2181 300.934 12.1246 300.141 12.1246H296.59C296.099 12.1246 295.608 12.3135 295.382 12.9934L290.774 28.1398C288.81 34.5231 285.259 39.6601 280.16 39.6601Z" fill="#F1E3E6"/>
<path d="M318.693 31.5392C317.938 31.5392 317.145 31.3503 315.407 31.3503H305.7C304.454 31.3503 302.528 31.5392 301.168 31.5392C300.828 31.5392 300.715 31.4636 300.715 31.237C300.715 31.0104 300.828 30.9348 301.13 30.9348C303.434 30.9348 305.247 30.4816 306.078 27.7243L313.103 4.75921C313.934 2.00189 312.688 1.54863 310.346 1.54863C310.082 1.54863 309.931 1.47309 309.931 1.24646C309.931 1.01983 310.082 0.944286 310.384 0.944286C311.781 0.944286 313.67 1.13315 314.916 1.13315H324.51C326.097 1.13315 327.003 0.944286 327.683 0.944286C328.325 0.944286 328.363 1.322 328.174 1.92635C327.834 3.13503 327.456 4.30595 327.192 5.47686C326.965 6.64778 326.814 7.8187 326.625 9.32956C326.588 9.70727 326.436 9.9339 326.21 9.9339C325.983 9.9339 325.945 9.74504 325.983 9.36733C326.588 3.1728 326.172 1.66195 322.471 1.66195H318.014C316.88 1.66195 316.163 2.30406 315.861 3.36166L312.65 13.8244C312.424 14.6176 312.877 15.2975 313.67 15.2975L317.863 15.2597C320.695 15.2975 321.715 13.5977 322.433 11.1804C322.546 10.8782 322.659 10.8026 322.848 10.8404C323.037 10.916 323.075 11.067 322.999 11.407C322.584 12.729 321.904 14.3532 321.451 15.7507L321.602 15.3352C321.186 16.695 320.809 18.4703 320.431 19.7923C320.318 20.1322 320.204 20.2455 319.978 20.17C319.789 20.1322 319.751 19.9811 319.864 19.6789C320.582 17.2616 320.544 15.7885 317.711 15.7885H313.557C312.726 15.7885 311.857 16.4306 311.63 17.186L308.155 28.5552C307.627 30.3305 307.778 30.8215 309.364 30.8215H313.783C317.069 30.8215 318.542 29.5373 323.301 22.7762C323.566 22.3985 323.793 22.1719 323.944 22.1719C324.17 22.1719 324.17 22.3985 323.944 22.7384C323.264 23.9094 322.735 24.627 321.866 26.0623C320.62 28.0264 320.242 29.084 319.789 30.5571C319.6 31.1615 319.336 31.5392 318.693 31.5392Z" fill="#F1E3E6"/>
<path d="M328.607 31.8036C326.567 31.8036 325.623 29.8772 325.623 27.3088C325.623 20.8499 331.628 10.9915 336.689 10.9915C338.351 10.9915 339.22 12.0113 339.598 13.8621C339.711 14.6931 340.013 14.7309 340.278 13.9377L340.542 13.22C340.769 12.6157 340.957 12.389 341.449 12.389C342.242 12.389 342.846 10.8404 343.526 10.8404C343.79 10.8404 343.904 11.067 343.715 11.3692C342.128 14.5043 340.542 17.6015 339.371 21.3409L337.634 26.5911C337.029 28.3286 337.029 29.3107 337.86 29.3107C338.767 29.3107 340.051 27.762 342.468 22.3607C342.695 21.9075 342.846 21.7564 343.073 21.7564C343.299 21.7564 343.337 21.8697 343.148 22.3229C341.184 26.78 338.918 31.577 336.614 31.577C335.103 31.577 334.801 30.7838 334.801 29.8395C334.801 29.0463 335.103 28.1398 335.594 26.78L336.161 25.0803C336.312 24.627 336.198 24.3626 335.972 24.3626C335.707 24.3626 335.443 24.5892 335.254 24.967C334.234 26.8178 331.288 31.8036 328.607 31.8036ZM328.002 26.7422C328.002 29.0463 328.569 29.8017 329.551 29.8017C332.232 29.8017 335.707 24.4004 337.671 19.2257C338.125 17.8659 338.578 16.3928 338.578 14.882C338.578 12.9556 338.087 11.8602 336.727 11.8602C332.497 11.8602 328.002 20.8876 328.002 26.7422Z" fill="#F1E3E6"/>
<path d="M349.144 16.0529C349.749 14.3154 349.749 13.3333 348.918 13.3333C348.049 13.3333 346.463 14.8442 343.97 20.2455C343.743 20.6988 343.592 20.8499 343.365 20.8499C343.139 20.8499 343.101 20.7365 343.29 20.2833C345.292 15.864 347.898 11.067 350.202 11.067C351.713 11.067 352.015 11.8602 351.977 12.8423C351.977 13.5977 351.599 14.5043 351.108 15.8263L348.615 22.5118C348.351 23.1539 348.842 23.1539 349.031 22.7384C352.846 13.5977 355.603 10.9915 358.02 10.9915C359.153 10.9915 359.569 11.6714 359.569 12.2757C359.569 13.1445 359.002 13.9377 358.171 13.9377C357.492 13.9377 357.189 13.5222 356.434 13.5222C354.659 13.5222 351.826 16.3173 348.351 25.5713C347.369 28.4797 347.86 29.8395 347.633 30.6327C347.445 31.3881 346.614 31.8414 345.707 31.8414C344.612 31.8414 344.159 31.0482 345.027 28.4797L349.144 16.0529Z" fill="#F1E3E6"/>
<path d="M360.786 27.0444C360.598 27.5732 360.371 28.2908 360.371 28.7441C360.371 29.3862 360.673 29.8395 361.504 29.8395C363.166 29.8395 365.243 27.1955 367.396 22.5118C367.51 22.2852 367.661 22.2096 367.774 22.2096C367.963 22.2096 368.114 22.4363 367.963 22.7384C365.961 27.4221 362.902 31.577 359.955 31.577C358.596 31.577 358.029 30.6327 358.029 29.3862C358.029 28.7063 358.218 27.9131 358.52 27.1199L363.393 12.9178C363.581 12.4268 363.468 12.0869 362.826 12.0869H360.447C360.22 12.0869 360.107 11.9358 360.107 11.8225C360.107 11.6714 360.295 11.4825 360.598 11.4825C364.11 11.4825 365.508 10.1228 367.019 6.7611C367.094 6.57224 367.283 6.49669 367.434 6.49669C367.623 6.49669 367.736 6.61001 367.698 6.7611L366.452 10.2738C366.225 10.9915 366.263 11.5203 367.056 11.5203C368.227 11.5203 369.36 11.2181 370.191 11.2181C370.493 11.2181 370.645 11.4448 370.645 11.6336C370.645 11.8602 370.418 12.1246 370.002 12.1246H366.792C366.301 12.1246 365.81 12.3135 365.583 12.9934L360.786 27.0444Z" fill="#F1E3E6"/>
<path d="M376.647 4.49481C377.176 2.9084 377.365 1.92635 375.703 1.92635C374.872 1.92635 374.419 1.96412 373.89 1.96412C373.588 1.96412 373.399 1.92635 373.399 1.69972C373.399 1.43532 373.625 1.35977 374.041 1.35977C374.985 1.35977 377.742 1.20869 378.876 0.566572C379.442 0.302172 379.895 0 380.311 0C380.689 0 380.689 0.151086 380.5 0.642116C379.102 4.19263 377.554 8.64967 376.572 11.3314L373.739 18.9235C373.512 19.4901 373.626 19.6412 373.814 19.6412C373.928 19.6412 374.117 19.5279 374.305 19.1124C376.874 14.4665 379.82 10.9915 382.804 10.9915C384.201 10.9915 384.957 11.898 384.957 13.3333C384.957 16.0529 382.464 21.0765 380.122 26.78C379.442 28.4797 379.404 29.4618 380.235 29.4995C381.104 29.5373 382.464 28.0642 385.183 22.7762C385.41 22.3607 385.561 22.2096 385.788 22.2096C386.014 22.2096 386.09 22.3607 385.863 22.814C383.672 27.1199 381.18 31.8414 378.876 31.728C377.365 31.6525 377.1 30.8215 377.138 29.8772C377.176 29.1218 377.44 28.1775 377.969 26.8178C380.084 21.492 382.653 16.0907 382.653 14.1265C382.653 13.1822 382.351 12.729 381.746 12.729C378.762 12.729 374.608 17.6771 371.888 25.5713C370.906 28.4797 371.397 29.8395 371.17 30.6327C370.982 31.3881 370.151 31.8414 369.244 31.8414C368.187 31.8414 367.696 31.0482 368.564 28.4797L376.647 4.49481Z" fill="#F1E3E6"/>
</svg>
