<svg width="100" height="100" viewBox="0 0 100 100" fill="none" xmlns="http://www.w3.org/2000/svg">
<path fill-rule="evenodd" clip-rule="evenodd" d="M30.4693 96.0136C55.8818 106.8 85.2263 94.9432 96.0133 69.5307C106.8 44.1182 94.9445 14.7738 69.532 3.98674C44.1194 -6.8002 14.7733 5.05535 3.98633 30.468C-6.80034 55.8806 5.05685 85.2266 30.4693 96.0136ZM13.3109 48.1929C13.2131 48.6428 12.6432 48.7917 12.3483 48.4381C6.99533 42.0196 5.24625 36.121 7.07531 31.792C7.07811 31.7853 7.07492 31.7777 7.06822 31.775C7.06152 31.7723 7.05836 31.7646 7.06118 31.758C14.2218 14.9022 30.1314 4.44018 47.2521 3.417C47.8943 3.37863 48.0413 4.31755 47.4396 4.54531C45.0791 5.43891 42.7513 6.58302 40.4889 7.95649C30.9778 13.7305 22.4828 23.5883 17.1635 36.1175C15.4615 40.1264 14.1833 44.1794 13.3109 48.1929ZM51.6146 71.9395C51.486 72.167 51.216 72.2731 50.967 72.1939C48.0159 71.2552 45.0133 70.1465 41.9944 68.8651C31.3672 64.354 22.4175 58.5047 16.1399 52.4808C16.0093 52.3555 15.9497 52.1751 15.9789 51.9965C16.7637 47.1994 18.1672 42.2858 20.2332 37.4196C25.3102 25.4611 33.3707 16.179 42.2206 10.8064C51.0554 5.44336 60.5484 4.03623 68.7289 7.48648C68.7518 7.49615 68.7627 7.52253 68.7532 7.54553C68.7437 7.56852 68.7543 7.59465 68.7768 7.60516C69.4364 7.91271 70.2352 8.95105 70.5965 11.5958C70.9483 14.1714 70.8006 17.7409 70.1212 22.0988C68.7664 30.7886 65.3677 42.2416 60.2205 54.3679C57.4934 60.7924 54.5586 66.7311 51.6146 71.9395ZM73.8068 75.8938C73.7023 76.0369 73.5361 76.1208 73.3589 76.1192C67.9689 76.0718 61.8393 75.2005 55.3637 73.4792C55.0145 73.3864 54.8482 72.989 55.0239 72.6732C57.8677 67.56 60.6774 61.8214 63.2885 55.67C68.5111 43.3663 72.0076 31.6421 73.4155 22.6099C74.1173 18.1073 74.3148 14.1779 73.9006 11.145C73.8637 10.8753 74.1691 10.6893 74.3814 10.8596C79.5422 14.998 83.1358 21.303 84.8528 28.899C87.135 38.9959 86.0559 51.241 80.9791 63.1993C78.9993 67.8625 76.5639 72.1178 73.8068 75.8938ZM78.9948 75.8397C78.5306 75.8934 78.2232 75.378 78.478 74.9862C80.5795 71.7553 82.4563 68.2484 84.0471 64.5014C89.3662 51.9726 90.5556 39.0161 88.1031 28.1649C87.6883 26.3298 87.1664 24.5516 86.5411 22.8437C86.3185 22.2357 87.1322 21.7374 87.5167 22.2584C96.9915 35.0965 99.6311 52.4641 92.9499 68.2163C92.9474 68.2221 92.9405 68.2248 92.9347 68.2221C92.9289 68.2195 92.9221 68.2221 92.9196 68.228C91.2064 72.2486 86.3672 74.9863 78.9948 75.8397ZM15.3606 79.5439C15.6094 80.136 14.8306 80.6747 14.4155 80.1846C5.86147 70.084 1.86627 56.6176 3.82854 43.2528C3.91034 42.6956 4.69515 42.6144 4.93333 43.1247C6.35849 46.178 8.52245 49.2514 11.2129 52.2032C11.5362 52.5578 11.8676 52.9127 12.2078 53.2665C12.3255 53.3888 12.3816 53.5581 12.3603 53.7265C11.5293 60.3107 11.8025 66.6802 13.1075 72.4539C13.6675 74.9317 14.4202 77.3064 15.3606 79.5439ZM32.4574 93.053C32.4425 93.0873 32.4027 93.1031 32.3684 93.0884C24.2116 89.5985 18.6366 81.7932 16.3595 71.7199C15.3634 67.3133 15.0075 62.4974 15.3447 57.4748C15.3754 57.018 15.9173 56.8008 16.2634 57.1006C22.6573 62.6404 31.0482 67.84 40.6907 71.9331C43.4742 73.1146 46.2522 74.1575 48.9979 75.0608C49.3383 75.1728 49.4879 75.5721 49.3011 75.878C47.4641 78.8861 45.644 81.5838 43.8841 83.9075C41.2212 87.4233 38.7578 90.0098 36.6607 91.5458C34.5298 93.1065 33.2321 93.2655 32.547 93.0159C32.5119 93.0031 32.4723 93.0188 32.4574 93.053ZM58.9916 89.8124C52.3437 93.8482 45.3219 95.6457 38.7679 94.8181C38.4785 94.7816 38.3948 94.407 38.6301 94.2347C41.0998 92.4257 43.7903 89.5523 46.542 85.9192C48.5633 83.2503 50.6499 80.1293 52.7391 76.6408C52.8685 76.4247 53.1269 76.322 53.3694 76.3897C59.1812 78.011 64.7825 78.9879 69.9179 79.3223C70.3787 79.3523 70.6116 79.8954 70.3049 80.2407C66.8298 84.1538 62.9924 87.3836 58.9916 89.8124ZM56.316 96.2312C55.6755 96.3193 55.4636 95.3918 56.0529 95.1258C57.6317 94.4131 59.1908 93.5892 60.7201 92.6608C66.0113 89.4486 70.9873 84.9722 75.278 79.4759C75.2983 79.4499 75.3292 79.4341 75.3622 79.4331C79.3525 79.3181 83.0645 78.7392 86.2497 77.644C86.7822 77.4609 87.2688 78.0817 86.9248 78.5276C79.3671 88.324 68.277 94.5853 56.316 96.2312Z" fill="#F1E3E6"/>
</svg>
