<svg width="365" height="60" viewBox="0 0 365 60" fill="none" xmlns="http://www.w3.org/2000/svg">
<path d="M345.106 55.1598C343.906 55.1598 343.346 54.5998 343.346 53.9198C343.346 52.9198 344.226 52.1198 345.306 52.1198C346.586 52.1198 347.066 53.1998 348.666 53.1998C349.826 53.1998 353.546 50.5198 353.986 45.7598C354.546 39.5998 354.666 33.0398 354.626 29.7198C354.626 26.8398 354.346 26.5998 353.666 26.5998C352.706 26.5998 351.466 29.2398 350.386 31.5198C350.106 32.1198 349.666 31.8798 349.866 31.3598C350.706 28.9198 352.386 24.5598 354.506 24.5598C356.226 24.5598 356.786 25.9198 356.826 29.5598C356.826 32.6798 356.706 37.9598 356.146 44.7998C356.066 45.6798 356.426 45.7998 356.906 45.0798C361.506 38.3198 363.186 33.2798 363.186 29.8798C363.186 27.7198 362.146 26.6798 362.146 25.5598C362.146 24.9998 362.506 24.3998 363.266 24.3998C364.306 24.3998 364.906 25.5598 364.906 28.1998C364.906 32.4798 362.266 38.1198 358.066 44.1198C353.746 50.3198 349.786 55.1598 345.106 55.1598Z" fill="black"/>
<path d="M335.286 29.7198C335.966 27.9198 336.006 26.8398 335.126 26.8398C334.166 26.7998 332.446 28.3998 329.726 34.0398C329.486 34.5198 329.326 34.6798 329.086 34.6798C328.846 34.6798 328.766 34.5198 329.006 34.0798C331.206 29.4398 334.086 24.3998 336.526 24.4798C338.086 24.5198 338.406 25.3598 338.366 26.3598C338.366 27.1998 337.966 28.1198 337.406 29.5598L336.126 32.8398C335.886 33.4398 336.046 33.5998 336.206 33.5998C336.366 33.5998 336.646 33.4798 336.886 33.0398C340.606 26.5598 343.166 24.4398 345.326 24.4398C346.846 24.4398 347.646 25.3998 347.646 26.9198C347.646 29.7998 345.006 35.1198 342.526 41.1598C341.806 42.9598 341.726 43.9998 342.606 44.0398C343.566 44.0798 345.006 42.5198 347.846 36.9198C348.126 36.4798 348.286 36.3198 348.526 36.3198C348.766 36.3198 348.806 36.4798 348.566 36.9598C346.286 41.5198 343.606 46.5198 341.166 46.3998C339.566 46.3198 339.326 45.4398 339.366 44.4398C339.406 43.6398 339.686 42.6398 340.206 41.1998C342.446 35.5598 345.166 29.8398 345.166 27.7598C345.166 26.7598 344.846 26.2798 344.206 26.2798C342.046 26.2798 337.046 31.5198 334.166 39.8798C333.166 42.9598 333.686 44.3998 333.446 45.2398C333.206 46.0398 332.366 46.5198 331.406 46.5198C330.246 46.5198 329.726 45.6798 330.646 42.9598L335.286 29.7198Z" fill="black"/>
<path d="M313.376 46.4798C311.216 46.4798 310.216 44.4398 310.216 41.7198C310.216 34.8798 316.576 24.4398 321.936 24.4398C323.696 24.4398 324.616 25.5198 325.016 27.4798C325.136 28.3598 325.456 28.3998 325.736 27.5598L326.016 26.7998C326.256 26.1598 326.456 25.9198 326.976 25.9198C327.816 25.9198 328.456 24.2798 329.176 24.2798C329.456 24.2798 329.576 24.5198 329.376 24.8398C327.696 28.1598 326.016 31.4398 324.776 35.3998L322.936 40.9598C322.296 42.7998 322.296 43.8398 323.176 43.8398C324.136 43.8398 325.496 42.1998 328.056 36.4798C328.296 35.9998 328.456 35.8398 328.696 35.8398C328.936 35.8398 328.976 35.9598 328.776 36.4398C326.696 41.1598 324.296 46.2398 321.856 46.2398C320.256 46.2398 319.936 45.3998 319.936 44.3998C319.936 43.5598 320.256 42.5998 320.776 41.1598L321.376 39.3598C321.536 38.8798 321.416 38.5998 321.176 38.5998C320.896 38.5998 320.616 38.8398 320.416 39.2398C319.336 41.1998 316.216 46.4798 313.376 46.4798ZM312.736 41.1198C312.736 43.5598 313.336 44.3598 314.376 44.3598C317.216 44.3598 320.896 38.6398 322.976 33.1598C323.456 31.7198 323.936 30.1598 323.936 28.5598C323.936 26.5198 323.416 25.3598 321.976 25.3598C317.496 25.3598 312.736 34.9198 312.736 41.1198Z" fill="black"/>
<path d="M290.501 54.7998C289.301 54.7998 287.981 54.9998 286.701 54.9998C286.421 54.9998 286.301 54.9198 286.301 54.6798C286.301 54.4398 286.421 54.3598 286.701 54.3598C288.861 54.3598 290.301 53.8798 291.221 50.9598L297.741 30.5198C297.861 30.1198 297.701 29.9998 297.381 30.3198C296.341 31.5998 294.741 32.9998 292.341 34.7998C291.581 35.3998 291.341 34.5198 291.781 34.1598C295.381 31.6398 296.861 29.7998 298.501 28.1198C298.981 26.1998 299.501 24.2798 300.021 22.1198C300.421 20.5198 300.941 19.9998 301.621 19.9998C302.701 19.9998 302.701 21.1598 302.541 22.0398C302.221 23.7598 300.821 26.7198 300.261 28.4398L298.901 32.7598C298.781 33.1598 298.821 33.3998 299.021 33.3998C299.181 33.3998 299.341 33.3198 299.581 32.8398C301.701 28.9198 304.821 24.4398 307.501 24.4398C309.341 24.4398 310.261 26.3198 310.261 29.1998C310.261 36.0798 304.581 46.3198 299.421 46.3198C297.901 46.3198 296.581 45.3598 296.141 44.4798C295.981 44.1598 295.741 44.1598 295.581 44.6398L293.581 50.9598C292.661 53.8798 294.901 54.3598 298.061 54.3598C298.541 54.3598 298.741 54.4398 298.741 54.6798C298.741 54.9198 298.541 54.9998 298.021 54.9998C296.381 54.9998 293.581 54.7998 291.541 54.7998H290.501ZM296.901 40.3598C296.341 42.3598 297.501 45.4398 299.621 45.4398C303.381 45.4398 307.861 35.9598 307.861 29.7998C307.861 27.7598 307.541 26.5598 306.341 26.5598C303.661 26.5598 298.981 33.2398 297.181 39.4398L296.901 40.3598Z" fill="black"/>
<path d="M266.677 46.5198C265.237 46.5198 264.837 45.6798 265.917 42.9598C267.517 38.9198 268.917 34.6798 270.557 29.7998C271.197 27.9598 271.237 26.8798 270.357 26.8798C269.397 26.8798 267.717 28.5198 265.077 34.1998C264.837 34.6798 264.677 34.8398 264.437 34.8398C264.197 34.7998 264.117 34.6798 264.357 34.1998C266.477 29.5198 269.277 24.4798 271.717 24.4798C273.317 24.5198 273.597 25.3598 273.597 26.3998C273.597 27.1998 273.197 28.1598 272.637 29.5598L271.277 33.2398C271.077 33.8398 271.237 33.9998 271.397 33.9998C271.637 33.9998 271.797 33.8798 272.037 33.4798C275.757 26.9598 277.957 24.4398 280.117 24.4398C281.517 24.4398 282.277 25.4398 282.277 26.8398C282.277 28.3198 281.397 29.9998 280.357 32.1598C280.077 32.7598 280.117 32.8798 280.317 32.8798C280.517 32.8798 280.557 32.8798 280.917 32.2798C284.277 26.5998 286.637 24.4398 288.677 24.4398C290.157 24.4398 290.717 25.3998 290.717 26.9198C290.717 29.7998 288.077 35.1198 285.597 41.1598C284.877 42.9598 284.837 43.9998 285.717 44.0398C286.637 44.1198 288.077 42.5198 290.957 36.9598C291.237 36.4798 291.397 36.3598 291.637 36.3598C291.877 36.3598 291.917 36.5198 291.677 36.9598C289.357 41.5598 286.677 46.5198 284.237 46.3998C282.677 46.3198 282.397 45.4398 282.437 44.4398C282.477 43.6398 282.757 42.6398 283.317 41.1998C285.557 35.5598 288.237 29.8398 288.237 27.7598C288.237 26.7598 287.957 26.2798 287.277 26.2798C284.957 26.2798 280.477 32.2398 277.877 39.9998C276.637 43.6398 277.277 44.3998 277.037 45.2398C276.837 46.0398 275.957 46.5198 274.997 46.5198C273.557 46.5198 273.157 45.6798 274.277 42.9598C275.877 38.7598 279.917 30.4798 279.917 27.7598C279.917 26.7598 279.637 26.2798 278.997 26.2798C277.197 26.2798 272.197 32.3198 269.597 39.9998C268.317 43.6398 268.917 44.3998 268.677 45.2398C268.477 46.0398 267.597 46.5198 266.677 46.5198Z" fill="black"/>
<path d="M252.251 46.5198C249.291 46.5198 247.611 44.1598 247.611 40.4398C247.611 32.8398 253.371 24.3998 258.691 24.3998C261.651 24.3998 263.411 26.9198 263.411 30.6398C263.411 38.1998 257.611 46.5198 252.251 46.5198ZM250.091 40.5998C250.091 43.3598 250.851 45.4398 252.971 45.4398C256.611 45.4398 260.891 37.1998 260.891 30.4398C260.891 27.6798 260.091 25.4798 257.971 25.4798C254.331 25.4798 250.091 33.8798 250.091 40.5998Z" fill="black"/>
<path d="M242.693 13.3598C245.813 13.3598 247.173 13.7998 248.253 13.7998C249.453 13.7998 249.733 13.5198 250.093 13.5198C250.293 13.5198 250.333 13.6798 250.253 13.9998C248.813 18.3598 248.213 22.5198 247.773 24.2398C247.653 24.5998 247.493 24.7998 247.293 24.7998C247.093 24.7998 247.013 24.6398 247.053 24.2398C247.733 20.7598 247.973 18.3598 247.493 16.7998C246.933 14.8398 245.373 14.1198 242.453 14.1198C233.253 14.1198 226.613 26.8798 226.613 36.3198C226.613 41.7198 228.613 45.1198 232.933 45.1198C238.093 45.1198 243.733 38.9598 246.293 32.9998C246.533 32.4798 246.613 32.2398 246.893 32.2398C247.013 32.2398 247.093 32.2798 247.093 32.4398C247.093 32.5598 247.013 32.7598 246.893 32.9998C244.133 39.6398 238.213 46.6398 231.733 46.6398C226.333 46.6398 223.893 42.5198 223.893 36.7598C223.893 27.5198 231.493 13.3598 242.693 13.3598Z" fill="black"/>
<path d="M204.383 46.5198C201.743 46.5198 200.143 44.4798 200.143 41.0798C200.143 34.6798 205.623 24.4398 211.183 24.4398C213.063 24.4398 214.343 25.3998 214.343 27.1998C214.343 30.4398 210.743 34.4398 204.703 36.3198C203.823 36.5198 202.983 37.4398 202.823 38.2798C202.623 39.2798 202.543 40.1998 202.543 40.9998C202.543 43.4398 203.703 44.5198 205.343 44.5198C208.023 44.5198 210.543 41.4798 212.863 36.5598C213.143 35.9598 213.743 36.2398 213.463 36.7998C211.263 41.1998 208.423 46.5198 204.383 46.5198ZM203.703 34.7598C203.463 35.5998 203.943 36.0798 204.783 35.8398C209.823 34.1598 212.183 30.5998 212.183 27.2798C212.183 26.3198 211.903 25.2798 210.783 25.2798C207.943 25.2798 205.183 30.0398 203.703 34.7598Z" fill="black"/>
<path d="M180.123 46.5198C178.083 46.5198 176.763 44.9598 176.763 41.9998C176.763 36.9598 180.963 31.6398 185.123 27.2798C185.723 26.6398 185.483 26.3998 185.123 26.6398C184.963 26.7198 184.443 26.9998 184.043 26.9998C182.723 26.9998 181.283 26.1998 180.403 26.1998C179.843 26.1998 179.563 26.5598 179.563 26.9998C179.603 27.7998 180.483 28.1198 180.483 29.0398C180.483 29.6798 180.003 30.1198 179.483 30.1198C179.043 30.1198 178.603 29.8398 178.603 28.9198C178.603 28.4398 178.763 27.5998 179.283 26.5598C179.883 25.2798 180.603 24.6398 181.923 24.6398C182.923 24.6398 184.643 25.3198 185.523 25.3198C186.043 25.3198 186.643 24.8798 187.003 24.5198C187.283 24.2398 187.843 24.6398 187.443 25.0398C183.883 29.0398 179.163 36.2798 179.163 41.5198C179.163 43.4398 179.963 44.4398 181.483 44.4398C185.283 44.4398 190.243 32.4798 190.563 26.5598C190.643 25.5998 193.323 25.3198 193.083 26.5598C191.763 33.4798 188.323 37.5598 188.323 41.7198C188.323 43.2398 188.803 44.4398 190.243 44.4398C194.603 44.4398 198.363 36.3198 198.363 30.7998C198.363 28.1998 197.323 26.7198 197.323 25.5198C197.323 24.9598 197.723 24.3998 198.563 24.3998C199.603 24.3998 200.043 25.2798 200.043 27.5998C200.043 34.9998 194.523 46.5198 189.243 46.5198C187.443 46.5198 186.243 45.2798 186.243 43.3198C186.243 42.4798 186.483 41.5598 186.923 40.3598C187.083 39.9198 186.563 39.8398 186.323 40.3598C184.323 44.4398 182.403 46.5198 180.123 46.5198Z" fill="black"/>
<path d="M146.025 45.8798C146.025 45.6398 146.145 45.5598 146.385 45.5598C148.345 45.5598 150.145 45.1998 151.865 42.6398L171.265 13.5598C171.345 13.4398 171.505 13.3598 171.625 13.3598H171.985C172.105 13.3598 172.185 13.4398 172.185 13.5598L171.265 41.9598C171.185 45.0398 172.425 45.5598 174.345 45.5598C174.585 45.5598 174.705 45.6398 174.705 45.8798C174.705 46.1198 174.585 46.1998 174.305 46.1998C173.185 46.1998 171.585 45.9998 170.545 45.9998H169.465C168.105 45.9998 166.025 46.1998 164.505 46.1998C164.145 46.1998 164.025 46.1198 164.025 45.8798C164.025 45.6398 164.145 45.5598 164.465 45.5598C167.025 45.5598 168.745 45.0398 168.825 41.9598L169.025 36.5998C169.065 35.7198 168.345 34.9998 167.465 34.9998H159.265C158.385 34.9998 157.265 35.5998 156.785 36.3198L152.585 42.6398C150.865 45.1998 151.945 45.5598 154.385 45.5598C154.705 45.5598 154.825 45.6398 154.825 45.8798C154.825 46.1198 154.705 46.1998 154.345 46.1998C153.025 46.1998 151.345 45.9998 149.945 45.9998C148.865 45.9998 147.505 46.1998 146.425 46.1998C146.145 46.1998 146.025 46.1198 146.025 45.8798ZM158.945 33.0798C158.425 33.8398 158.745 34.4398 159.625 34.4398H167.465C168.345 34.4398 169.105 33.7198 169.145 32.8398L169.585 18.7998C169.625 17.9198 169.225 17.7998 168.745 18.5598L158.945 33.0798Z" fill="black"/>
<path d="M132.235 46.5198C129.595 46.5198 127.995 44.4798 127.995 41.0798C127.995 34.6798 133.475 24.4398 139.035 24.4398C140.915 24.4398 142.195 25.3998 142.195 27.1998C142.195 30.4398 138.595 34.4398 132.555 36.3198C131.675 36.5198 130.835 37.4398 130.675 38.2798C130.475 39.2798 130.395 40.1998 130.395 40.9998C130.395 43.4398 131.555 44.5198 133.195 44.5198C135.875 44.5198 138.395 41.4798 140.715 36.5598C140.995 35.9598 141.595 36.2398 141.315 36.7998C139.115 41.1998 136.275 46.5198 132.235 46.5198ZM131.555 34.7598C131.315 35.5998 131.795 36.0798 132.635 35.8398C137.675 34.1598 140.035 30.5998 140.035 27.2798C140.035 26.3198 139.755 25.2798 138.635 25.2798C135.795 25.2798 133.035 30.0398 131.555 34.7598Z" fill="black"/>
<path d="M117.182 17.5598C117.742 15.8798 117.942 14.8398 116.182 14.8398C115.302 14.8398 114.822 14.8798 114.262 14.8798C113.942 14.8798 113.742 14.8398 113.742 14.5998C113.742 14.3198 113.982 14.2398 114.422 14.2398C115.422 14.2398 118.342 14.0798 119.542 13.3998C120.142 13.1198 120.622 12.7998 121.062 12.7998C121.462 12.7998 121.462 12.9598 121.262 13.4798C119.782 17.2398 118.142 21.9598 117.102 24.7998L114.102 32.8398C113.862 33.4398 113.982 33.5998 114.182 33.5998C114.302 33.5998 114.502 33.4798 114.702 33.0398C117.422 28.1198 120.542 24.4398 123.702 24.4398C125.182 24.4398 125.982 25.3998 125.982 26.9198C125.982 29.7998 123.342 35.1198 120.862 41.1598C120.142 42.9598 120.102 43.9998 120.982 44.0398C121.902 44.0798 123.342 42.5198 126.222 36.9198C126.462 36.4798 126.622 36.3198 126.862 36.3198C127.102 36.3198 127.182 36.4798 126.942 36.9598C124.622 41.5198 121.982 46.5198 119.542 46.3998C117.942 46.3198 117.662 45.4398 117.702 44.4398C117.742 43.6398 118.022 42.6398 118.582 41.1998C120.822 35.5598 123.542 29.8398 123.542 27.7598C123.542 26.7598 123.222 26.2798 122.582 26.2798C119.422 26.2798 115.022 31.5198 112.142 39.8798C111.102 42.9598 111.622 44.3998 111.382 45.2398C111.182 46.0398 110.302 46.5198 109.342 46.5198C108.222 46.5198 107.702 45.6798 108.622 42.9598L117.182 17.5598Z" fill="black"/>
<path d="M92.56 45.9998C90.88 45.9998 88.36 46.1998 86.52 46.1998C86.08 46.1998 85.92 46.1198 85.92 45.8798C85.92 45.6398 86.08 45.5598 86.48 45.5598C89.56 45.5598 91.88 45.0798 92.8 42.1598L100.84 15.7998C101.12 14.9998 100.8 14.5598 100 14.5598H97.16C94.2 14.5598 92.08 17.4398 90.24 22.3998C90.08 22.7598 89.96 22.9998 89.68 22.9998C89.4 22.9998 89.44 22.7598 89.56 22.3998C89.84 21.4398 90.48 19.9998 91 18.3598C91.56 16.5598 91.6 15.5198 91.84 14.7198C92.04 14.1198 92.28 13.7998 92.64 13.7998C93.76 13.7998 94.6 13.9998 96.36 13.9998H108.88C110.6 13.9998 111.6 13.7998 112.72 13.7998C113.12 13.7998 113.16 14.1198 112.96 14.7198C112.72 15.5198 112.16 16.5598 111.6 18.3598C111.08 19.9998 110.84 21.4398 110.56 22.3998C110.44 22.7598 110.36 22.9998 110.08 22.9998C109.8 22.9998 109.76 22.7998 109.88 22.3998C111.08 17.4398 110.68 14.5598 107.72 14.5598H104.88C104.12 14.5598 103.56 14.9998 103.32 15.7998L95.24 42.1598C94.36 45.0798 96.12 45.5598 99.2 45.5598C99.6 45.5598 99.76 45.6398 99.76 45.8798C99.76 46.1198 99.6 46.1998 99.16 46.1998C97.32 46.1998 94.8 45.9998 93.12 45.9998H92.56Z" fill="black"/>
<path fill-rule="evenodd" clip-rule="evenodd" d="M18.2814 57.6078C33.5288 64.0798 51.1354 56.9656 57.6076 41.7182C64.0797 26.4707 56.9663 8.86425 41.7189 2.39203C26.4715 -4.0801 8.86393 3.03319 2.39178 18.2807C-4.08018 33.5282 3.03409 51.1357 18.2814 57.6078ZM7.9865 28.9156C7.92783 29.1855 7.58588 29.2748 7.40895 29.0627C4.19717 25.2116 3.14773 21.6725 4.24515 19.0751C4.24684 19.0711 4.24492 19.0665 4.2409 19.0649C4.23688 19.0633 4.23498 19.0586 4.23668 19.0547C8.53301 8.94125 18.0787 2.66409 28.3511 2.05019C28.7364 2.02716 28.8246 2.59052 28.4636 2.72717C27.0473 3.26333 25.6506 3.94979 24.2931 4.77387C18.5866 8.23825 13.4896 14.1529 10.298 21.6704C9.27686 24.0757 8.50989 26.5075 7.9865 28.9156ZM30.9686 43.1634C30.8914 43.2999 30.7294 43.3636 30.58 43.3161C28.8093 42.7529 27.0078 42.0876 25.1965 41.3188C18.8202 38.6122 13.4504 35.1026 9.68387 31.4883C9.60554 31.4131 9.56976 31.3049 9.58728 31.1977C10.0581 28.3195 10.9003 25.3713 12.1398 22.4516C15.186 15.2766 20.0223 9.70736 25.3322 6.48383C30.633 3.266 36.3288 2.42173 41.237 4.49186C41.2508 4.49766 41.2573 4.51349 41.2516 4.52729C41.246 4.54108 41.2523 4.55676 41.2658 4.56307C41.6615 4.7476 42.1408 5.3706 42.3576 6.95746C42.5687 8.50281 42.48 10.6445 42.0724 13.2592C41.2596 18.4731 39.2203 25.3448 36.132 32.6205C34.4958 36.4752 32.7349 40.0384 30.9686 43.1634ZM44.2838 45.536C44.2211 45.6219 44.1213 45.6722 44.015 45.6713C40.7811 45.6428 37.1033 45.12 33.218 44.0873C33.0084 44.0316 32.9087 43.7931 33.0141 43.6037C34.7204 40.5358 36.4062 37.0926 37.9728 33.4018C41.1064 26.0196 43.2042 18.9852 44.049 13.5659C44.4701 10.8643 44.5885 8.5067 44.34 6.68695C44.3179 6.52513 44.5011 6.41357 44.6285 6.51574C47.725 8.99876 49.8811 12.7817 50.9113 17.3393C52.2806 23.3974 51.6332 30.7444 48.5871 37.9194C47.3992 40.7173 45.938 43.2704 44.2838 45.536ZM47.3965 45.5035C47.118 45.5358 46.9336 45.2265 47.0865 44.9915C48.3474 43.0529 49.4735 40.9488 50.4279 38.7006C53.6193 31.1834 54.333 23.4095 52.8615 16.8989C52.6126 15.7978 52.2995 14.7309 51.9243 13.7061C51.7907 13.3413 52.279 13.0424 52.5097 13.3549C58.1945 21.0577 59.7782 31.4782 55.7695 40.9295C55.768 40.933 55.7639 40.9346 55.7604 40.933C55.757 40.9314 55.7529 40.933 55.7514 40.9365C54.7235 43.3489 51.8199 44.9915 47.3965 45.5035ZM9.21628 47.726C9.36558 48.0813 8.89827 48.4046 8.64924 48.1105C3.51686 42.0501 1.11975 33.9704 2.29711 25.9515C2.34619 25.6172 2.81707 25.5685 2.95998 25.8747C3.81507 27.7066 5.11343 29.5507 6.72772 31.3217C6.92166 31.5345 7.1205 31.7474 7.32462 31.9597C7.39522 32.0331 7.4289 32.1347 7.41615 32.2357C6.91754 36.1862 7.08143 40.0079 7.86444 43.4721C8.20046 44.9587 8.65209 46.3836 9.21628 47.726ZM19.4743 55.8315C19.4654 55.852 19.4415 55.8615 19.4209 55.8527C14.5268 53.7588 11.1819 49.0756 9.81561 43.0317C9.218 40.3877 9.00441 37.4982 9.20675 34.4847C9.22516 34.2106 9.55034 34.0803 9.75797 34.2602C13.5943 37.584 18.6288 40.7038 24.4142 43.1596C26.0843 43.8685 27.7511 44.4942 29.3985 45.0362C29.6028 45.1034 29.6926 45.343 29.5805 45.5265C28.4782 47.3314 27.3862 48.95 26.3303 50.3442C24.7325 52.4537 23.2545 54.0055 21.9963 54.9272C20.7177 55.8636 19.9391 55.959 19.528 55.8092C19.507 55.8015 19.4832 55.8109 19.4743 55.8315ZM35.3947 53.8871C31.406 56.3086 27.193 57.3871 23.2606 56.8905C23.087 56.8686 23.0367 56.6439 23.1779 56.5405C24.6597 55.4551 26.274 53.7311 27.925 51.5512C29.1378 49.9499 30.3897 48.0773 31.6433 45.9842C31.7209 45.8546 31.8759 45.7929 32.0214 45.8335C35.5085 46.8063 38.8692 47.3925 41.9504 47.5931C42.2269 47.6111 42.3667 47.937 42.1827 48.1442C40.0976 50.492 37.7952 52.4298 35.3947 53.8871ZM33.7894 57.7384C33.405 57.7913 33.2779 57.2348 33.6315 57.0751C34.5788 56.6475 35.5142 56.1532 36.4318 55.5961C39.6065 53.6688 42.5921 50.983 45.1665 47.6853C45.1787 47.6697 45.1972 47.6602 45.217 47.6596C47.6112 47.5906 49.8384 47.2432 51.7495 46.5861C52.069 46.4762 52.3609 46.8488 52.1545 47.1163C47.6199 52.9941 40.9659 56.7508 33.7894 57.7384Z" fill="black"/>
</svg>
