<svg width="100" height="100" viewBox="0 0 100 100" fill="none" xmlns="http://www.w3.org/2000/svg">
<path fill-rule="evenodd" clip-rule="evenodd" d="M50 0C77.6139 0.000150824 99.9998 22.3861 100 50C99.9999 77.614 77.614 99.9998 50 100C22.3861 99.9998 0.000134348 77.614 0 50C0.000175258 22.3861 22.3861 0.000175235 50 0ZM71.382 65.0957C71.283 64.8222 71.0057 64.6559 70.7176 64.6963C64.4071 65.5816 57.3861 66.0742 50 66.0742C42.6136 66.0742 35.5921 65.5826 29.2814 64.6973C28.9933 64.6569 28.7161 64.8232 28.617 65.0967L25.0567 74.9308C24.9736 75.1602 25.0342 75.4175 25.2132 75.5833C29.8386 79.8648 35.5622 82.8034 41.7783 84.0264C49.5737 85.56 57.6481 84.3005 64.6199 80.4731C64.917 80.31 65.2917 80.4113 65.4601 80.7055L66.3746 82.3025C66.5431 82.5965 66.4413 82.9721 66.1445 83.1356C58.5334 87.3286 49.7081 88.7126 41.1865 87.0361C34.9966 85.8184 29.258 83.0422 24.4722 79.0199C24.1409 78.7415 23.6295 78.8723 23.4822 79.2793L20.9351 86.3152C20.8455 86.5628 20.9235 86.8402 21.131 87.0023C29.0929 93.2232 39.1129 96.9325 50 96.9326C60.8874 96.9326 70.9069 93.2225 78.869 87.0014C79.0764 86.8393 79.1545 86.5618 79.0648 86.3143L71.382 65.0957ZM4.45605 56.9111C4.09362 56.6541 3.57808 56.9472 3.64747 57.3861C5.28996 67.7759 10.3416 77.0309 17.6208 83.9712C17.9377 84.2732 18.4572 84.146 18.6062 83.7344L21.2423 76.4535C21.3212 76.2353 21.2701 75.9916 21.1123 75.8216C20.4162 75.0716 19.7483 74.2909 19.1113 73.4805C16.2091 69.7877 14.0425 65.6084 12.6832 61.1726C12.6256 60.9847 12.4829 60.8346 12.2979 60.7683C9.15012 59.6399 6.48425 58.3495 4.45605 56.9111ZM96.3526 57.3849C96.4219 56.9461 95.9073 56.6541 95.5449 56.9111C92.9019 58.7857 89.1768 60.4115 84.7119 61.751C81.8077 62.6222 78.5532 63.3818 75.0211 64.0122C74.6449 64.0794 74.4184 64.4688 74.5485 64.8281L81.3938 83.7335C81.5428 84.1451 82.0623 84.2723 82.3792 83.9702C89.6586 77.0297 94.7102 67.775 96.3526 57.3849ZM17.3607 62.3368C16.8766 62.2073 16.4451 62.6749 16.633 63.1394C17.8516 66.1527 19.4912 68.9992 21.5234 71.585C21.6413 71.7349 21.7604 71.8837 21.8806 72.0313C22.1766 72.3948 22.7505 72.2895 22.91 71.8487L25.4516 64.8281C25.5817 64.4688 25.355 64.0794 24.9788 64.0122C22.2644 63.5276 19.7141 62.9662 17.3607 62.3368ZM53.6363 16.0826C53.5601 15.8721 53.3753 15.7193 53.1536 15.6872C51.1322 15.3944 49.0812 15.2848 47.0247 15.3629C46.7777 15.3723 46.5625 15.532 46.4783 15.7644L30.1123 60.9665C29.9795 61.3333 30.2179 61.7293 30.6046 61.7807C36.5185 62.5662 43.0806 63.0068 50 63.0068C56.9191 63.0068 63.4807 62.5661 69.3944 61.7807C69.7811 61.7293 70.0195 61.3333 69.8867 60.9665L53.6363 16.0826ZM34.9478 38.5994C35.1012 38.1756 34.7601 37.7368 34.3117 37.7833C27.0304 38.5386 20.5865 39.7997 15.4453 41.4108C15.2424 41.4743 15.0884 41.6391 15.039 41.8458C14.4981 44.108 14.179 46.4335 14.0977 48.79C13.9882 51.9638 14.3112 55.1124 15.038 58.1532C15.0874 58.3599 15.2423 58.5249 15.445 58.5889C15.6836 58.6642 15.9252 58.7391 16.1699 58.8125C19.1548 59.7079 22.5467 60.4851 26.2589 61.121C26.5506 61.1709 26.8358 61.0041 26.9366 60.7258L34.9478 38.5994ZM73.0634 60.7259C73.1642 61.0041 73.4494 61.1709 73.7411 61.121C77.4532 60.4851 80.8453 59.7079 83.8301 58.8125C88.1355 57.5209 91.5086 56.0135 93.7705 54.4092C96.0721 52.7767 96.9324 51.2639 96.9326 50C96.9325 48.9394 96.334 47.7071 94.749 46.3516C93.1713 45.0024 90.783 43.6845 87.6523 42.4834C82.1153 40.3591 74.5166 38.6982 65.6871 37.7823C65.2388 37.7358 64.8978 38.1746 65.0512 38.5984L73.0634 60.7259ZM11.5097 43.8437C11.5882 43.364 11.1139 42.9752 10.6683 43.1693C8.35315 44.1778 6.53628 45.2527 5.25391 46.3486C3.66661 47.7052 3.06848 48.9387 3.06836 50C3.06854 51.2639 3.92892 52.7767 6.23047 54.4092C7.41431 55.2488 8.9025 56.0614 10.6693 56.8308C11.1149 57.0249 11.5892 56.636 11.5107 56.1563C11.1093 53.7028 10.9454 51.2003 11.0322 48.6836C11.0885 47.0539 11.2491 45.4375 11.5097 43.8437ZM47.4811 3.98328C47.63 3.57195 47.3104 3.14196 46.8739 3.17067C24.9903 4.60979 7.20456 21.0481 3.69766 42.3024C3.60703 42.8517 4.2547 43.2251 4.71392 42.9104C6.49012 41.6932 8.70983 40.5935 11.2617 39.6152C11.6008 39.4853 11.9465 39.357 12.2989 39.2307C12.4839 39.1644 12.6266 39.0143 12.6842 38.8264C14.3019 33.5485 17.0568 28.6529 20.8018 24.5166C26.7996 17.892 34.9396 13.6477 43.7588 12.5518C43.8475 12.5407 43.9363 12.5301 44.025 12.5198C44.2581 12.4928 44.4569 12.3375 44.5368 12.1169L47.4811 3.98328ZM55.6812 12.7187C55.7537 12.919 55.925 13.067 56.1331 13.1122C59.5244 13.8484 62.8121 15.0611 65.8955 16.729C66.1935 16.8902 66.298 17.2648 66.1319 17.5601L65.2295 19.1645C65.0634 19.4598 64.6895 19.564 64.3913 19.4032C62.4009 18.3305 60.3184 17.4645 58.1759 16.8115C57.7017 16.667 57.2773 17.1273 57.4461 17.5935L63.4339 34.1314C63.5153 34.3561 63.7207 34.5131 63.9588 34.5343C73.8198 35.413 82.452 37.2026 88.751 39.6191C91.2976 40.5962 93.5128 41.6948 95.2861 42.9103C95.7453 43.2251 96.393 42.8517 96.3023 42.3024C92.7953 21.0483 75.0097 4.6099 53.1261 3.17067C52.6896 3.14197 52.37 3.57196 52.5189 3.98329L55.6812 12.7187ZM42.8802 16.6919C43.0386 16.2544 42.6713 15.8083 42.2136 15.8921C34.8729 17.2365 28.1444 20.9775 23.0762 26.5752C20.3243 29.6147 18.1532 33.1024 16.6331 36.8605C16.4452 37.325 16.8765 37.7927 17.3605 37.6632C22.7131 36.2315 29.0701 35.1565 36.0416 34.5353C36.2797 34.5141 36.4847 34.3571 36.5661 34.1323L42.8802 16.6919ZM48.0441 11.4394C47.8978 11.8431 48.201 12.2687 48.6304 12.2725C49.5414 12.2805 50.4503 12.3224 51.3553 12.3976C51.808 12.4352 52.1552 11.993 52.0006 11.5658L50.5767 7.63291C50.3814 7.09343 49.6184 7.09336 49.423 7.6328L48.0441 11.4394Z" fill="black"/>
</svg>
