<svg width="100" height="100" viewBox="0 0 100 100" fill="none" xmlns="http://www.w3.org/2000/svg">
<path fill-rule="evenodd" clip-rule="evenodd" d="M50 0C77.6139 0.000245015 99.9998 22.3861 100 50C99.9999 77.6139 77.6139 99.9998 50 100C22.3861 99.9998 0.000131964 77.614 0 50C0.000175258 22.3861 22.3861 0.000175235 50 0ZM20.6145 86.0593C20.5244 86.3054 20.6003 86.5819 20.8054 86.745C28.8189 93.1206 38.9639 96.9325 50 96.9326C60.8152 96.9325 70.7743 93.2719 78.7107 87.1251C78.9203 86.9629 78.999 86.6833 78.9079 86.4345L76.004 78.5003C75.8532 78.0883 75.3309 77.9627 75.0025 78.2536C68.3466 84.1479 59.5914 87.7305 50 87.7305C40.1886 87.7305 31.253 83.9842 24.5425 77.8455C24.2156 77.5464 23.6855 77.6693 23.5332 78.0853L20.6145 86.0593ZM55.0332 12.2752C55.1113 12.4886 55.3022 12.6411 55.527 12.6741C73.7445 15.3484 87.7304 31.04 87.7305 50C87.7305 50.3343 87.7391 50.4963 87.7451 50.7314C87.7474 50.8219 87.7488 50.9123 87.7485 51.0102C87.7474 51.3489 87.4535 51.6071 87.1153 51.5875L87.0547 51.584H70.2977C69.8715 51.584 69.5751 52.008 69.7216 52.4083L81.2411 83.8835C81.3909 84.2926 81.9072 84.4193 82.2239 84.1201C91.2803 75.564 96.9325 63.4422 96.9326 50C96.9324 24.9484 77.3037 4.48163 52.5873 3.13848C52.1525 3.11485 51.8375 3.54468 51.9871 3.9536L55.0332 12.2752ZM33.6602 51.584C33.4027 51.584 33.1726 51.7448 33.0841 51.9866L25.1503 73.6664C25.0697 73.8867 25.1214 74.1339 25.2858 74.3011C31.5739 80.696 40.323 84.6631 50 84.6631C59.4439 84.6631 68.0022 80.8859 74.2553 74.7587C74.4258 74.5917 74.4808 74.3401 74.3988 74.1161L66.2997 51.9866C66.2112 51.7448 65.9811 51.584 65.7236 51.584H33.6602ZM47.3835 3.9912C47.5343 3.57904 47.2133 3.14705 46.7754 3.17677C22.3595 4.83344 3.06853 25.1639 3.06836 50C3.06843 63.2123 8.52961 75.1473 17.3159 83.6763C17.631 83.9822 18.1535 83.8577 18.3044 83.4453L21.3727 75.0615C21.4494 74.8518 21.4059 74.6173 21.2612 74.4473C15.6541 67.8623 12.2695 59.3264 12.2695 50C12.2696 31.2626 25.9286 15.7149 43.8327 12.7711C44.0532 12.7348 44.2391 12.5836 44.3159 12.3737L47.3835 3.9912ZM16.0167 51.584C15.6671 51.584 15.3876 51.8759 15.4097 52.2249C15.8415 59.0422 18.2428 65.3241 22.0525 70.5077C22.3372 70.895 22.9321 70.8018 23.0973 70.3503L29.6641 52.4083C29.8106 52.008 29.5143 51.584 29.088 51.584H16.0167ZM42.5913 17.0846C42.7565 16.6333 42.3617 16.1783 41.8943 16.2903C27.3259 19.7806 16.3366 32.4705 15.4049 47.8749C15.3839 48.2232 15.663 48.5156 16.012 48.5156H30.6591C30.9166 48.5156 31.1467 48.3548 31.2353 48.113L42.5913 17.0846ZM50 15.3379C48.9255 15.3379 47.8623 15.3861 46.8127 15.4816C46.5788 15.5029 46.3795 15.6585 46.2988 15.879L34.6562 47.6913C34.5097 48.0916 34.806 48.5156 35.2323 48.5156H64.1515C64.5778 48.5156 64.8741 48.0916 64.7276 47.6913L53.0672 15.8297C52.9851 15.6054 52.7804 15.4487 52.5422 15.4313C51.7027 15.3701 50.855 15.3379 50 15.3379ZM68.1495 48.113C68.238 48.3548 68.4681 48.5156 68.7256 48.5156H83.989C84.338 48.5156 84.6171 48.2232 84.596 47.8749C83.6498 32.2313 72.33 19.3896 57.4239 16.137C56.9596 16.0357 56.5747 16.4881 56.738 16.9343L68.1495 48.113ZM47.9148 11.4654C47.7625 11.8812 48.0876 12.3169 48.53 12.2993C49.0177 12.2799 49.5077 12.2695 50 12.2695C50.2865 12.2695 50.5722 12.2729 50.8572 12.2794C51.2955 12.2895 51.6129 11.8568 51.4622 11.445L50.2684 8.18337C50.072 7.64654 49.3127 7.64651 49.1162 8.18333L47.9148 11.4654Z" fill="black"/>
</svg>
