<svg width="100" height="100" viewBox="0 0 100 100" fill="none" xmlns="http://www.w3.org/2000/svg">
<path fill-rule="evenodd" clip-rule="evenodd" d="M31.0906 96.2943C31.0936 96.2873 31.1017 96.284 31.1087 96.2869C56.3723 106.608 85.3181 94.7373 96.0149 69.5366C106.802 44.1225 94.9453 14.7744 69.5325 3.98675C44.1198 -6.80062 14.7737 5.05633 3.98658 30.4702C-6.73681 55.7342 4.91731 84.8856 30.0208 95.8266C30.3667 95.9915 30.7171 96.1506 31.0724 96.3016C31.0795 96.3046 31.0876 96.3013 31.0906 96.2943ZM93.6546 68.5336C83.4208 92.6442 55.5802 103.894 31.471 93.6596C31.3541 93.61 31.2376 93.5597 31.1214 93.5092C23.2472 89.7518 17.8915 81.9583 15.6702 72.062C13.3599 61.7685 14.476 49.3056 19.6389 37.144C24.8021 24.9821 32.9935 15.5214 42.0042 10.0327C51.0137 4.54461 60.7424 3.07385 69.1434 6.63518C69.1484 6.63734 69.1543 6.63497 69.1565 6.62988C69.1586 6.62475 69.1646 6.62241 69.1697 6.62466C92.8378 17.0762 103.797 44.6372 93.6546 68.5336ZM17.7932 84.8295C17.9365 84.9351 18.0786 85.0385 18.22 85.1391L18.2247 85.1427C18.2274 85.1449 18.2297 85.1474 18.2316 85.1503C18.2503 85.1799 18.2114 85.2128 18.1855 85.1893C18.054 85.07 17.9234 84.9499 17.7932 84.8295Z" fill="white"/>
</svg>
