<svg width="534" height="88" viewBox="0 0 534 88" fill="none" xmlns="http://www.w3.org/2000/svg">
<path fill-rule="evenodd" clip-rule="evenodd" d="M27.3571 84.7291C27.36 84.7218 27.3684 84.7184 27.3756 84.7214C49.6073 93.8036 75.0773 83.3617 84.4904 61.1867C93.9828 38.8243 83.5504 13.0004 61.1876 3.50796C38.8246 -5.98432 13.0005 4.45014 3.50793 26.8127C-5.92103 49.026 4.31192 74.6507 26.3673 84.2951C26.6867 84.4482 27.01 84.597 27.3385 84.7367C27.3457 84.7398 27.3541 84.7364 27.3571 84.7291ZM82.4142 60.3058C73.4084 81.5207 48.9091 91.4184 27.6935 82.4132C27.5628 82.3578 27.4336 82.299 27.3038 82.2423C20.4182 78.9217 15.7345 72.084 13.7872 63.4093C11.7541 54.3519 12.7351 43.3851 17.2784 32.6837C21.8219 21.9825 29.0309 13.6589 36.9601 8.82925C44.8888 3.9999 53.4498 2.70468 60.8429 5.83906C60.8467 5.84065 60.851 5.83891 60.8526 5.83516C60.8543 5.83137 60.8587 5.82965 60.8625 5.83132C81.6927 15.0268 91.3403 39.2776 82.4142 60.3058ZM15.67 74.6554C15.7909 74.7444 15.911 74.8312 16.0304 74.9162L16.0344 74.9192C16.0369 74.9211 16.0391 74.9234 16.0407 74.926C16.0568 74.9513 16.0233 74.9795 16.0012 74.9594C15.8902 74.8586 15.78 74.7571 15.67 74.6554Z" fill="white"/>
<path d="M133.37 62.9977L139.231 32.8489H128.354L129.779 25.2985H162.093L160.667 32.8489H149.791L143.93 62.9977H133.37Z" fill="white"/>
<path d="M159.072 62.9977L166.358 25.2985H176.496L173.698 39.6601C175.968 36.5449 179.294 34.7497 182.779 34.7497C188.165 34.7497 191.122 38.8681 189.907 44.9929L186.37 62.9977H176.179L179.453 45.8905C179.928 43.4089 178.978 41.8777 176.866 41.8777C174.595 41.8777 173.011 43.6201 172.43 46.6825L169.262 62.9977H159.072Z" fill="white"/>
<path d="M206.917 63.6313C198.839 63.6313 193.242 58.2457 193.242 50.5369C193.242 45.9961 194.985 42.0361 197.941 39.1849C200.845 36.3865 204.858 34.7497 209.452 34.7497C218.639 34.7497 223.972 41.7721 222.229 51.1705H203.485L203.433 51.4345C202.957 55.0777 204.489 57.2953 207.551 57.2953C209.874 57.2953 211.617 56.0281 212.514 53.4409L221.332 54.0217C219.853 59.7769 214.045 63.6313 206.917 63.6313ZM204.33 46.1017H213.306C213.834 42.8281 212.25 40.6633 209.61 40.6633C206.917 40.6633 205.017 42.7753 204.33 46.1017Z" fill="white"/>
<path d="M234.573 62.9977L241.859 25.2985H268.471L267.045 32.8489H250.888L249.568 39.7129H259.759L258.333 47.1049H248.143L246.453 55.4473H263.719L262.24 62.9977H234.573Z" fill="white"/>
<path d="M279.835 63.6313C271.282 63.6313 265.738 58.5625 265.738 50.7481C265.738 46.3129 267.427 42.4057 270.173 39.5545C273.077 36.5449 277.143 34.7497 281.842 34.7497C289.181 34.7497 294.778 39.3961 295.042 45.5209L285.802 46.3129C285.802 43.0921 284.587 41.4025 282.264 41.4025C280.311 41.4025 278.938 42.6169 277.829 45.0457C276.773 47.4217 276.192 50.0617 276.192 52.2265C276.192 55.3417 277.512 56.9785 280.099 56.9785C282.581 56.9785 284.165 55.5529 285.168 52.5433L293.986 53.3353C291.927 59.8825 286.963 63.6313 279.835 63.6313Z" fill="white"/>
<path d="M295.352 62.9977L302.638 25.2985H312.67L305.384 62.9977H295.352Z" fill="white"/>
<path d="M310.974 62.9977L316.359 35.3833H326.55L321.217 62.9977H310.974ZM318.419 24.7705H328.662L327.131 32.6905H316.835L318.419 24.7705Z" fill="white"/>
<path d="M324.851 72.9241L332.138 35.3833H341.8L341.008 39.5017C342.803 36.7033 345.813 34.7497 349.509 34.7497C355.686 34.7497 358.643 39.9241 358.643 45.9961C358.643 50.2201 357.27 54.7081 354.789 58.1401C352.36 61.4665 349.086 63.6313 345.021 63.6313C341.589 63.6313 338.896 61.8361 337.682 59.0377L334.936 72.9241H324.851ZM342.064 57.3481C343.754 57.3481 345.179 56.0281 346.235 53.8105C347.238 51.6985 348.083 48.0553 348.083 45.5209C348.083 42.5641 346.922 41.0857 344.862 41.0857C343.12 41.0857 341.853 42.2473 340.797 44.6233C339.741 46.8937 338.896 50.6953 338.896 53.0185C338.896 55.7641 340.058 57.3481 342.064 57.3481Z" fill="white"/>
<path d="M374.21 63.6313C366.766 63.6313 360.324 59.6185 360.007 54.7081L368.614 53.4937C369.089 55.9753 371.465 57.4537 374.527 57.4537C376.745 57.4537 378.223 56.6617 378.223 55.2889C378.223 54.3385 377.431 53.7049 376.059 53.2825L372.626 52.3849C366.502 50.7481 363.703 48.2665 363.703 44.1481C363.703 38.4985 368.666 34.7497 376.27 34.7497C382.87 34.7497 387.727 37.7065 388.995 42.5113L380.81 44.1481C380.282 41.9305 378.118 40.5577 375.583 40.5577C373.63 40.5577 372.415 41.4025 372.415 42.5113C372.415 43.5145 373.366 44.2009 375.583 44.8345L378.751 45.6793C384.612 47.2105 387.252 49.6921 387.252 53.7577C387.252 59.6185 381.866 63.6313 374.21 63.6313Z" fill="white"/>
<path d="M404.299 63.6313C396.22 63.6313 390.623 58.2457 390.623 50.5369C390.623 45.9961 392.366 42.0361 395.323 39.1849C398.227 36.3865 402.239 34.7497 406.833 34.7497C416.02 34.7497 421.353 41.7721 419.611 51.1705H400.867L400.814 51.4345C400.339 55.0777 401.87 57.2953 404.932 57.2953C407.255 57.2953 408.998 56.0281 409.895 53.4409L418.713 54.0217C417.235 59.7769 411.427 63.6313 404.299 63.6313ZM401.711 46.1017H410.687C411.215 42.8281 409.631 40.6633 406.991 40.6633C404.299 40.6633 402.398 42.7753 401.711 46.1017Z" fill="white"/>
<path d="M429.103 62.9977L448.481 25.2985H460.572L465.218 62.9977H454.975L454.236 55.5529H441.986L438.343 62.9977H429.103ZM445.524 48.2665H453.497L452.177 34.6969H452.124L445.524 48.2665Z" fill="white"/>
<path d="M466.648 72.9241L473.934 35.3833H483.597L482.805 39.5017C484.6 36.7033 487.61 34.7497 491.306 34.7497C497.483 34.7497 500.44 39.9241 500.44 45.9961C500.44 50.2201 499.067 54.7081 496.586 58.1401C494.157 61.4665 490.883 63.6313 486.818 63.6313C483.386 63.6313 480.693 61.8361 479.478 59.0377L476.733 72.9241H466.648ZM483.861 57.3481C485.55 57.3481 486.976 56.0281 488.032 53.8105C489.035 51.6985 489.88 48.0553 489.88 45.5209C489.88 42.5641 488.718 41.0857 486.659 41.0857C484.917 41.0857 483.65 42.2473 482.594 44.6233C481.538 46.8937 480.693 50.6953 480.693 53.0185C480.693 55.7641 481.854 57.3481 483.861 57.3481Z" fill="white"/>
<path d="M500.009 72.9241L507.295 35.3833H516.958L516.166 39.5017C517.961 36.7033 520.971 34.7497 524.667 34.7497C530.844 34.7497 533.801 39.9241 533.801 45.9961C533.801 50.2201 532.428 54.7081 529.947 58.1401C527.518 61.4665 524.244 63.6313 520.179 63.6313C516.747 63.6313 514.054 61.8361 512.839 59.0377L510.094 72.9241H500.009ZM517.222 57.3481C518.911 57.3481 520.337 56.0281 521.393 53.8105C522.396 51.6985 523.241 48.0553 523.241 45.5209C523.241 42.5641 522.079 41.0857 520.02 41.0857C518.278 41.0857 517.011 42.2473 515.955 44.6233C514.899 46.8937 514.054 50.6953 514.054 53.0185C514.054 55.7641 515.215 57.3481 517.222 57.3481Z" fill="white"/>
</svg>
